<?xml version="1.0" encoding="utf-8"?>
<!-- Generator: Adobe Illustrator 27.5.0, SVG Export Plug-In . SVG Version: 6.00 Build 0)  -->
<svg version="1.1" xmlns="http://www.w3.org/2000/svg" xmlns:xlink="http://www.w3.org/1999/xlink" x="0px" y="0px"
	 viewBox="0 0 2500 2500" style="enable-background:new 0 0 2500 2500;" xml:space="preserve">
<!-- <g id="Background">
	<rect style="fill:#FFFFFF;" width="2500" height="2500"/>
</g> -->
<g id="Illustration">
	<g id="Management_of_resources_1_">
		<circle style="fill:#F2E6DC;" cx="1250" cy="1250" r="915"/>
		<path style="fill:#D3BBA3;" d="M572.805,1379.871c-0.011,0-0.021,0-0.032,0l-70.276-1.004c-0.585-0.009-1.142-0.249-1.55-0.668
			c-0.407-0.419-0.632-0.984-0.623-1.569l0.454-31.738c-9.7-2.934-19.053-6.963-27.85-12l-22.76,22.118
			c-0.874,0.849-2.268,0.829-3.118-0.044l-48.983-50.403c-0.407-0.419-0.632-0.983-0.623-1.569c0.009-0.584,0.249-1.142,0.669-1.549
			l22.76-22.118c-4.783-8.938-8.545-18.402-11.199-28.182l-31.738-0.453c-0.585-0.009-1.142-0.249-1.55-0.668
			c-0.407-0.419-0.632-0.984-0.623-1.569l1.004-70.276c0.017-1.217,1.021-2.148,2.236-2.173l31.739,0.454
			c2.932-9.697,6.963-19.05,12-27.849l-22.118-22.76c-0.848-0.874-0.828-2.269,0.045-3.118l50.403-48.982
			c0.42-0.407,0.988-0.623,1.568-0.624c0.585,0.009,1.142,0.249,1.55,0.668l22.118,22.76c8.938-4.783,18.402-8.544,28.18-11.2
			l0.454-31.738c0.017-1.217,0.97-2.192,2.236-2.173l70.276,1.004c0.585,0.009,1.142,0.249,1.55,0.668
			c0.407,0.419,0.632,0.984,0.623,1.569l-0.454,31.739c9.7,2.933,19.053,6.963,27.85,12l22.76-22.118
			c0.42-0.408,1.041-0.607,1.568-0.624c0.585,0.009,1.142,0.249,1.55,0.668l48.982,50.403c0.848,0.874,0.828,2.269-0.045,3.118
			l-22.759,22.118c4.781,8.935,8.543,18.4,11.198,28.182l31.738,0.453c0.585,0.009,1.142,0.249,1.55,0.668
			c0.407,0.419,0.632,0.983,0.623,1.569l-1.004,70.276c-0.017,1.217-0.962,2.183-2.236,2.173l-31.738-0.454
			c-2.935,9.7-6.964,19.053-12,27.849l22.118,22.76c0.848,0.874,0.828,2.269-0.045,3.118l-50.403,48.982
			c-0.419,0.409-0.979,0.632-1.568,0.624c-0.585-0.009-1.142-0.249-1.55-0.668l-22.118-22.76
			c-8.938,4.783-18.402,8.544-28.18,11.199l-0.454,31.738C574.992,1378.905,574.008,1379.871,572.805,1379.871z M504.763,1374.489
			l65.868,0.941l0.446-31.206c0.014-0.994,0.692-1.855,1.654-2.103c10.543-2.72,20.726-6.767,30.265-12.027
			c0.869-0.481,1.952-0.318,2.646,0.394l21.746,22.378l47.241-45.909l-21.747-22.378c-0.692-0.713-0.822-1.801-0.317-2.656
			c5.529-9.383,9.866-19.446,12.886-29.908c0.277-0.955,1.167-1.591,2.15-1.594l31.206,0.446l0.942-65.867l-31.206-0.446
			c-0.994-0.015-1.855-0.692-2.104-1.654c-2.722-10.547-6.768-20.729-12.026-30.265c-0.48-0.87-0.319-1.953,0.394-2.646
			l22.376-21.747l-45.908-47.24l-22.378,21.746c-0.711,0.692-1.797,0.824-2.656,0.319c-9.385-5.531-19.447-9.867-29.908-12.887
			c-0.955-0.276-1.607-1.156-1.593-2.15l0.447-31.206l-65.868-0.942l-0.446,31.206c-0.014,0.994-0.692,1.855-1.654,2.103
			c-10.543,2.721-20.726,6.767-30.265,12.027c-0.873,0.48-1.954,0.317-2.646-0.394l-21.746-22.378l-47.241,45.909l21.747,22.377
			c0.692,0.713,0.823,1.801,0.318,2.656c-5.531,9.387-9.868,19.45-12.886,29.908c-0.276,0.956-1.118,1.619-2.15,1.593l-31.205-0.446
			l-0.942,65.867l31.206,0.446c0.994,0.015,1.856,0.692,2.104,1.654c2.719,10.543,6.766,20.726,12.026,30.265
			c0.48,0.87,0.319,1.953-0.394,2.646l-22.378,21.747l45.909,47.24l22.378-21.746c0.712-0.691,1.797-0.824,2.656-0.319
			c9.383,5.531,19.446,9.867,29.908,12.887c0.955,0.276,1.607,1.156,1.593,2.15L504.763,1374.489z M539.986,1290.979
			c-19.66,0-39.3-7.624-54.053-22.803c-28.958-29.799-28.274-77.601,1.525-106.559c29.797-28.959,77.599-28.275,106.559,1.523
			c28.958,29.799,28.274,77.601-1.524,106.559C577.873,1283.906,558.92,1290.979,539.986,1290.979z M539.965,1144.744
			c-17.829,0-35.67,6.657-49.435,20.034c-28.054,27.264-28.698,72.269-1.434,100.323c27.263,28.055,72.268,28.698,100.324,1.435
			c28.054-27.264,28.698-72.269,1.434-100.324C576.967,1151.924,558.473,1144.744,539.965,1144.744z"/>
		<g>
			<circle style="fill:#E6D0BE;" cx="1091.503" cy="981.761" r="554.591"/>
			<path style="fill:#FFFFFF;" d="M1171.924,1538.557c-1.107,0-2.189-0.003-3.297-0.01
				c-148.723-0.856-288.21-59.577-392.768-165.346c-104.558-105.768-161.669-245.923-160.813-394.646
				c0.857-148.723,59.579-288.211,165.346-392.768c104.981-103.779,243.863-160.821,391.35-160.821c1.107,0,2.189,0.003,3.297,0.009
				c148.723,0.856,288.212,59.577,392.769,165.346c104.557,105.769,161.669,245.923,160.812,394.646l-2.205-0.013l2.205,0.013
				c-0.857,148.722-59.578,288.21-165.346,392.768C1458.293,1481.514,1319.411,1538.557,1171.924,1538.557z M1171.783,429.375
				c-303.135,0-550.578,245.684-552.327,549.206c-0.849,147.545,55.81,286.59,159.539,391.521
				c103.729,104.931,242.112,163.187,389.658,164.036c147.552,0.878,286.589-55.81,391.52-159.539
				c104.931-103.729,163.187-242.113,164.037-389.658c1.753-304.581-244.614-553.803-549.197-555.557
				C1173.954,429.378,1172.841,429.375,1171.783,429.375z"/>
			<path style="fill:#FFFFFF;" d="M1172.804,714.945c-154.021,0-305.412-25.932-437.808-74.994c-1.141-0.423-1.724-1.692-1.3-2.834
				c0.424-1.142,1.692-1.724,2.833-1.301c131.91,48.882,282.772,74.72,436.275,74.72c152.327,0,302.182-25.466,433.364-73.645
				c1.141-0.42,2.412,0.167,2.829,1.31c0.42,1.143-0.166,2.41-1.309,2.83C1476.026,689.385,1325.644,714.945,1172.804,714.945z"/>
			<path style="fill:#FFFFFF;" d="M730.687,1320.162c-0.891,0-1.731-0.545-2.064-1.429c-0.428-1.14,0.148-2.411,1.288-2.841
				c133.66-50.304,286.811-76.894,442.894-76.894c155.243,0,307.675,26.32,440.818,76.115c1.139,0.426,1.718,1.697,1.292,2.837
				c-0.426,1.14-1.697,1.72-2.838,1.292c-132.653-49.612-284.551-75.835-439.273-75.835c-155.559,0-308.172,26.492-441.342,76.612
				C731.208,1320.116,730.945,1320.162,730.687,1320.162z"/>
			<path style="fill:#FFFFFF;" d="M1171.833,1538.556c-77.775,0-150.776-58.11-205.558-163.625
				c-54.544-105.057-84.582-244.688-84.582-393.171s30.039-288.115,84.582-393.171c54.782-105.515,127.784-163.625,205.558-163.625
				c77.774,0,150.775,58.11,205.557,163.625c54.543,105.057,84.582,244.687,84.582,393.171s-30.038,288.114-84.582,393.171
				C1322.608,1480.447,1249.607,1538.556,1171.833,1538.556z M1171.833,429.375c-157.552,0-285.731,247.799-285.731,552.386
				s128.179,552.386,285.731,552.386c157.551,0,285.73-247.799,285.73-552.386S1329.384,429.375,1171.833,429.375z"/>
			<path style="fill:#FFFFFF;" d="M1171.833,1537.819c-1.218,0-2.205-0.987-2.205-2.205V428.351c0-1.218,0.987-2.205,2.205-2.205
				c1.218,0,2.205,0.987,2.205,2.205v1107.263C1174.038,1536.832,1173.051,1537.819,1171.833,1537.819z"/>
			<path style="fill:#FFFFFF;" d="M1726.545,984.921c-0.006,0-0.011,0-0.017,0l-1109.632-8.65c-1.218-0.01-2.197-1.004-2.188-2.222
				c0.01-1.212,0.995-2.188,2.205-2.188c0.005,0,0.011,0,0.017,0l1109.632,8.65c1.217,0.01,2.196,1.004,2.188,2.222
				C1728.741,983.945,1727.755,984.921,1726.545,984.921z"/>
		</g>
		<g>
			<g>
				<g>
					<path style="fill:#363E44;" d="M2132.737,1813.206H820.441c-1.218,0-2.205-0.987-2.205-2.205V816.337
						c0-1.218,0.987-2.205,2.205-2.205h280.941c1.218,0,2.205,0.987,2.205,2.205c0,1.218-0.987,2.205-2.205,2.205H822.646v990.255
						h1307.886V818.542H1521.38c-1.219,0-2.205-0.987-2.205-2.205c0-1.218,0.986-2.205,2.205-2.205h611.357
						c1.219,0,2.205,0.987,2.205,2.205v994.665C2134.942,1812.219,2133.956,1813.206,2132.737,1813.206z"/>
					
						<rect x="1060.31" y="658.812" transform="matrix(-1.836970e-16 1 -1 -1.836970e-16 2750.3762 -202.8012)" style="fill:#FFFFFF;" width="832.557" height="1229.952"/>
					
						<ellipse transform="matrix(0.2298 -0.9732 0.9732 0.2298 -561.6108 2781.6655)" style="fill:#FFFFFF;" cx="1476.589" cy="1745.646" rx="24.702" ry="24.702"/>
					<path style="fill:#E6D0BE;" d="M1614.726,1830.718h-38.852c0,29.144-23.626,52.77-52.77,52.77h-93.033
						c-29.144,0-52.77-23.626-52.77-52.77h-38.85l-38.852,206.467v17.267h353.976v-17.267L1614.726,1830.718z"/>
					<path style="fill:#E6D0BE;" d="M1653.577,2078.24H1299.6c-1.219,0-2.205-0.987-2.205-2.205c0-1.218,0.986-2.205,2.205-2.205
						h353.977c1.219,0,2.205,0.987,2.205,2.205C1655.781,2077.253,1654.795,2078.24,1653.577,2078.24z"/>
				</g>
			</g>
			<g>
				<g>
					<path style="fill:#D87355;" d="M1078.123,1149.886h-65.685c-1.218,0-2.205-0.987-2.205-2.205c0-1.218,0.987-2.205,2.205-2.205
						h64.238l44.801-32.924h201.506l47.042-40.671h208.323l76.661-66.28c0.919-0.796,2.31-0.698,3.111,0.225
						c0.795,0.921,0.696,2.314-0.226,3.11l-77.905,67.354h-208.323l-47.042,40.671h-201.701L1078.123,1149.886z"/>
					<g>
						<path style="fill:#EFBC73;" d="M1125.809,1216.33H941.432c-1.218,0-2.205-0.987-2.205-2.205c0-1.218,0.987-2.205,2.205-2.205
							h182.734l106.894-92.419h42.11l36.171-31.273h161.983l53.176,45.976h73.411c1.219,0,2.205,0.987,2.205,2.205
							c0,1.218-0.986,2.205-2.205,2.205h-75.052l-53.176-45.976h-158.702l-36.171,31.273h-42.108L1125.809,1216.33z"/>
						<ellipse style="fill:#EFBC73;" cx="1525.278" cy="1136.213" rx="8.872" ry="7.671"/>
						<ellipse style="fill:#EFBC73;" cx="1469.817" cy="1089.659" rx="8.872" ry="7.671"/>
						<ellipse style="fill:#EFBC73;" cx="1309.522" cy="1089.659" rx="8.872" ry="7.671"/>
						<ellipse style="fill:#EFBC73;" cx="1276.04" cy="1121.267" rx="8.872" ry="7.671"/>
						<ellipse style="fill:#EFBC73;" cx="1233.104" cy="1121.808" rx="8.872" ry="7.671"/>
						<ellipse style="fill:#EFBC73;" cx="1125.73" cy="1212.954" rx="8.872" ry="7.671"/>
					</g>
					<g>
						<polygon style="fill:#D3BBA3;" points="1131.724,1091.915 1128.84,1088.579 1222.339,1007.742 1499.993,1007.742 
							1541.32,972.008 1544.206,975.344 1501.634,1012.151 1223.981,1012.151 						"/>
						<polygon style="fill:#D3BBA3;" points="1050.124,1162.466 940.317,1162.466 940.317,1158.056 1048.481,1158.056 
							1128.84,1088.58 1131.724,1091.915 						"/>
						<ellipse style="fill:#D3BBA3;" cx="1047.385" cy="1159.811" rx="8.872" ry="7.671"/>
						<ellipse style="fill:#D3BBA3;" cx="1501.316" cy="1010.44" rx="8.872" ry="7.671"/>
					</g>
				</g>
				<g>
					<g>
						<rect x="1404.295" y="1266.178" style="fill:#F2E6DC;" width="522.13" height="370.849"/>
						<rect x="1404.295" y="1266.178" style="fill:#E6D0BE;" width="522.13" height="32.91"/>
						<path style="fill:#E6D0BE;" d="M1926.425,1639.232h-522.131c-1.219,0-2.205-0.987-2.205-2.205v-370.849
							c0-1.218,0.986-2.205,2.205-2.205h522.131c1.219,0,2.205,0.987,2.205,2.205v370.849
							C1928.63,1638.245,1927.644,1639.232,1926.425,1639.232z M1406.499,1634.822h517.721v-366.44h-517.721V1634.822z"/>
						<circle style="fill:#FFFFFF;" cx="1426.178" cy="1282.863" r="7.485"/>
						<circle style="fill:#FFFFFF;" cx="1450.363" cy="1282.863" r="7.485"/>
						<circle style="fill:#FFFFFF;" cx="1474.547" cy="1282.863" r="7.485"/>
						<g>
							<path style="fill:#E6D0BE;" d="M1902.48,1567h-470.723c-1.219,0-2.205-0.987-2.205-2.205s0.986-2.205,2.205-2.205h470.723
								c1.219,0,2.205,0.987,2.205,2.205S1903.699,1567,1902.48,1567z"/>
							<path style="fill:#E6D0BE;" d="M1902.48,1516.851h-470.723c-1.219,0-2.205-0.987-2.205-2.205
								c0-1.218,0.986-2.205,2.205-2.205h470.723c1.219,0,2.205,0.987,2.205,2.205
								C1904.685,1515.864,1903.699,1516.851,1902.48,1516.851z"/>
							<path style="fill:#E6D0BE;" d="M1902.48,1466.702h-470.723c-1.219,0-2.205-0.987-2.205-2.205
								c0-1.218,0.986-2.205,2.205-2.205h470.723c1.219,0,2.205,0.987,2.205,2.205
								C1904.685,1465.715,1903.699,1466.702,1902.48,1466.702z"/>
							<path style="fill:#E6D0BE;" d="M1902.48,1416.553h-470.723c-1.219,0-2.205-0.987-2.205-2.205
								c0-1.218,0.986-2.205,2.205-2.205h470.723c1.219,0,2.205,0.987,2.205,2.205
								C1904.685,1415.566,1903.699,1416.553,1902.48,1416.553z"/>
							<path style="fill:#E6D0BE;" d="M1902.48,1366.405h-470.723c-1.219,0-2.205-0.987-2.205-2.205
								c0-1.218,0.986-2.205,2.205-2.205h470.723c1.219,0,2.205,0.987,2.205,2.205
								C1904.685,1365.417,1903.699,1366.405,1902.48,1366.405z"/>
							<path style="fill:#E6D0BE;" d="M1824.026,1617.149c-1.219,0-2.205-0.987-2.205-2.205v-300.893
								c0-1.218,0.986-2.205,2.205-2.205s2.205,0.987,2.205,2.205v300.893C1826.231,1616.161,1825.245,1617.149,1824.026,1617.149z"
								/>
							<path style="fill:#E6D0BE;" d="M1745.572,1617.149c-1.219,0-2.205-0.987-2.205-2.205v-300.893
								c0-1.218,0.986-2.205,2.205-2.205s2.205,0.987,2.205,2.205v300.893C1747.777,1616.161,1746.791,1617.149,1745.572,1617.149z"
								/>
							<path style="fill:#E6D0BE;" d="M1667.118,1617.149c-1.219,0-2.205-0.987-2.205-2.205v-300.893
								c0-1.218,0.986-2.205,2.205-2.205s2.205,0.987,2.205,2.205v300.893C1669.323,1616.161,1668.337,1617.149,1667.118,1617.149z"
								/>
							<path style="fill:#E6D0BE;" d="M1588.666,1617.149c-1.219,0-2.205-0.987-2.205-2.205v-300.893
								c0-1.218,0.986-2.205,2.205-2.205c1.219,0,2.205,0.987,2.205,2.205v300.893
								C1590.871,1616.161,1589.885,1617.149,1588.666,1617.149z"/>
							<path style="fill:#E6D0BE;" d="M1510.212,1617.149c-1.219,0-2.205-0.987-2.205-2.205v-300.893
								c0-1.218,0.986-2.205,2.205-2.205c1.219,0,2.205,0.987,2.205,2.205v300.893
								C1512.417,1616.161,1511.43,1617.149,1510.212,1617.149z"/>
						</g>
					</g>
					<polygon style="fill:#D87355;" points="1893.523,1217.608 1764.935,1230.76 1793.394,1261.95 1649.884,1383.395 
						1598.466,1319.846 1420.784,1501.6 1581.388,1391.334 1632.34,1457.877 1840.571,1313.655 1868.672,1344.454 					"/>
				</g>
				<g>
					<rect x="949.954" y="1377.603" style="fill:#D3BBA3;" width="175.197" height="150.033"/>
					<g>
						<rect x="1198.015" y="1197.922" style="fill:#FFFFFF;" width="175.197" height="150.032"/>
						<path style="fill:#8B865C;" d="M1375.416,1350.159h-179.605v-154.442h179.605V1350.159z M1200.22,1345.75h170.786v-145.623
							H1200.22V1345.75z"/>
					</g>
					<g>
						<rect x="1144.895" y="1375.047" style="fill:#D3BBA3;" width="156.784" height="4.41"/>
						<rect x="1144.895" y="1407.182" style="fill:#D3BBA3;" width="123.486" height="4.41"/>
						<rect x="1144.895" y="1436.289" style="fill:#D3BBA3;" width="144.298" height="4.41"/>
						<rect x="1144.895" y="1466.91" style="fill:#D3BBA3;" width="99.267" height="4.41"/>
					</g>
					<g>
						<path style="fill:#EFBC73;" d="M1264.983,1243.213c2.75-1.375,5.602-2.33,8.483-2.893l-1.092-15.601
							c-4.872,0.752-9.71,2.258-14.35,4.578c-11.27,5.636-19.408,15.075-23.639,25.991l14.997,4.415
							C1252.379,1252.785,1257.727,1246.842,1264.983,1243.213z"/>
						<path style="fill:#EFBC73;" d="M1248.522,1284.03c-1.922-5.413-2.349-11.078-1.452-16.484l-14.997-4.415
							c-1.877,9.097-1.183,18.781,2.463,27.894L1248.522,1284.03z"/>
						<path style="fill:#D87355;" d="M1325.157,1254.844l-13.986,6.994c5.529,15.574-1.31,33.24-16.46,40.817
							c-15.151,7.577-33.388,2.452-42.532-11.314l-13.986,6.995c13.044,21.425,40.647,29.652,63.477,18.235
							C1324.5,1305.153,1334.474,1278.133,1325.157,1254.844z"/>
						<path style="fill:#8B865C;" d="M1281.622,1239.758c10.239,0.565,19.972,5.855,25.893,14.769l13.986-6.995
							c-8.914-14.642-24.627-23.119-40.971-23.375L1281.622,1239.758z"/>
					</g>
				</g>
				<rect x="1682.131" y="977.034" style="fill:#F2E6DC;" width="350.566" height="50.141"/>
				<rect x="1685.07" y="1045.821" style="fill:#F2E6DC;" width="350.566" height="50.141"/>
				<rect x="1685.07" y="1114.602" style="fill:#F2E6DC;" width="350.566" height="50.142"/>
			</g>
			<g>
				<path style="fill:#D87355;" d="M1476.053,820.955c-1.473-94.244-78.282-170.2-172.876-170.2c-2.762,0-5.505,0.08-8.235,0.208
					v169.992H1476.053z"/>
				<path style="fill:#EFBC73;" d="M1277.88,838.016v-105.65c-56.985,2.673-102.368,49.71-102.368,107.356
					c0,59.363,48.123,107.486,107.486,107.486c59.363,0,107.486-48.123,107.486-107.486c0-0.572-0.034-1.136-0.043-1.706H1277.88z"
					/>
			</g>
			<g>
				<path style="fill:#D3BBA3;" d="M2071.011,1865.986h-406.97c-1.219,0-2.205-0.987-2.205-2.205v-104.723
					c0-1.218,0.986-2.205,2.205-2.205h406.97c1.219,0,2.205,0.987,2.205,2.205v104.723
					C2073.216,1864.999,2072.229,1865.986,2071.011,1865.986z M1666.246,1861.576h402.56v-100.313h-402.56V1861.576z"/>
				<g>
					<path style="fill:#EFBC73;" d="M2020.702,1724.597c-17.356-5.26-19.411-30.91-33.887-30.545
						c-35.846,0.905-52.121,112.79-79.307,111.313c-22.442-1.22-26.116-78.267-52.105-80.767c-27.74-2.669-47.3,82.824-77.26,80.767
						c-26.307-1.806-25.258-68.688-71.869-91.078c-7.831-3.762-16.037-5.797-24.266-6.604v134.447h371.036v-126.582
						C2039.041,1725.168,2028.619,1726.997,2020.702,1724.597z"/>
				</g>
			</g>
			<g>
				<path style="fill:#8B865C;" d="M1026.599,1081.893c-43.737,0-71.764-46.534-51.312-85.194l50.189-94.871l51.926,93.932
					C1098.791,1034.449,1070.807,1081.893,1026.599,1081.893z"/>
				<path style="fill:#363E44;" d="M1038.757,1084.098c-21.32,0-40.616-10.903-51.616-29.167
					c-10.999-18.264-11.614-40.418-1.644-59.263l50.189-94.871c0.378-0.716,1.119-1.167,1.928-1.174
					c0.74,0.026,1.559,0.43,1.95,1.138l51.926,93.931c10.427,18.86,10.114,41.201-0.833,59.763
					C1079.709,1073.016,1060.307,1084.098,1038.757,1084.098z M1037.677,906.463l-48.283,91.267
					c-9.24,17.466-8.67,37.999,1.524,54.926c10.195,16.927,28.078,27.033,47.839,27.033c19.973,0,37.955-10.271,48.101-27.474
					c10.147-17.203,10.435-37.909,0.773-55.389L1037.677,906.463z"/>
			</g>
			<g>
				<g>
					<path style="fill:#363E44;" d="M1874.26,1019.252c-35.179,0-63.697-28.518-63.697-63.697v-50.637h127.394v50.637
						C1937.957,990.734,1909.439,1019.252,1874.26,1019.252z"/>
					<path style="fill:#EFBC73;" d="M2046.615,655.039c0-97.456-80.885-176.02-179.184-172.224
						c-87.625,3.384-159.664,73.555-165.175,161.072c-4.265,67.731,30.633,127.678,84.209,159.461l3.088,53.957
						c2.57,44.903,39.732,79.999,84.709,79.999c44.976,0,82.138-35.096,84.709-79.999l3.088-53.957
						C2012.671,773.321,2046.615,718.156,2046.615,655.039z"/>
					<path style="fill:#F2E6DC;" d="M1873.348,960.876c-37.628,0-64.749-17.825-65.163-18.103c-1.01-0.68-1.277-2.049-0.596-3.059
						c0.678-1.012,2.048-1.277,3.06-0.6c0.611,0.411,61.853,40.542,127.249-2.675c1.014-0.672,2.381-0.393,3.055,0.624
						c0.672,1.016,0.392,2.384-0.622,3.055C1916.65,955.765,1893.493,960.876,1873.348,960.876z"/>
					<path style="fill:#F2E6DC;" d="M1873.348,987.534c-37.628,0-64.749-17.825-65.163-18.103c-1.01-0.68-1.277-2.049-0.596-3.059
						c0.678-1.012,2.048-1.277,3.06-0.6c0.611,0.411,61.853,40.541,127.249-2.675c1.014-0.672,2.381-0.393,3.055,0.624
						c0.672,1.016,0.392,2.384-0.622,3.055C1916.65,982.423,1893.493,987.534,1873.348,987.534z"/>
				</g>
				<polygon style="fill:#FFFFFF;" points="1827.069,688.49 1879.414,555.802 1955.303,555.802 1887.829,660.492 1955.303,660.492 
					1827.069,793.18 1868.37,688.49 				"/>
			</g>
		</g>
		<g>
			<g>
				<path style="fill:#EFBC73;" d="M985.406,1655.139c0,0,53.613,146.724,164.649,146.724c79.565,0,120.033-53.421,128.531-129.903
					c9.235-83.12-117.388-216.738-271.774-341.428C1006.812,1330.531,952.903,1533.835,985.406,1655.139z"/>
				<g>
					<path style="fill:#EFBC73;" d="M611.496,1646.466c0,0-77.559,197.931-191.319,123.055
						c-203.259-133.785,11.251-334.393,166.415-413.111c201.929-102.444,348.014-47.174,420.221-25.878L993.881,1757.4
						c-1.218,40.241-34.192,72.06-74.451,72.06H655.151c-50.371,0-86.218-48.785-71.009-96.805L611.496,1646.466z"/>
					<path style="fill:#363E44;" d="M579.946,1518.32c-0.183,0-0.369-0.023-0.556-0.071c-1.178-0.306-1.886-1.51-1.579-2.688
						l13.294-51.209c0.305-1.178,1.507-1.885,2.688-1.58c1.178,0.306,1.886,1.51,1.579,2.688l-13.293,51.209
						C581.821,1517.662,580.927,1518.32,579.946,1518.32z"/>
					<path style="fill:#363E44;" d="M995.145,1718.087c-0.023,0-0.045,0-0.068-0.001c-1.218-0.037-2.174-1.053-2.137-2.271
						l1.839-60.743c0.037-1.217,1.055-2.166,2.271-2.137c1.218,0.037,2.174,1.053,2.137,2.271l-1.839,60.743
						C997.311,1717.143,996.333,1718.087,995.145,1718.087z"/>
				</g>
				<g>
					<g>
						<path style="fill:#84524D;" d="M466.005,1567.822c0,0,138.775-58.064,213.091-86.925
							c128.767-50.007,202.919-36.172,203.008-17.659c0.097,20.091-38.529,8.635-56.945,14.477
							c2.989,1.475,10.862,7.526,11.254,17.456c0.581,14.696-10.168,19.29-10.979,20.11c1.051,0.412,12.261,5.188,14.197,14.954
							c2.18,11-2.329,19.464-9.021,24.568c2.578,1.109,11.705,6.242,13.309,15.688c1.649,9.716-3.18,21.148-12.322,24.207
							c-16.771,5.612-66.906,21.265-90.443,32.084c-46.317,21.289-201.371,120.658-275.867,132.379
							c-55.849,2.226-81.813-75.733-58.513-137.214C421.436,1583.257,466.005,1567.822,466.005,1567.822z"/>
						<g>
							<path style="fill:#363E44;" d="M810.446,1593.279c-1.061,0-1.996-0.768-2.174-1.848l-2.586-15.737
								c-0.197-1.201,0.617-2.336,1.818-2.533c1.191-0.202,2.335,0.616,2.533,1.818l2.586,15.737
								c0.197,1.202-0.617,2.336-1.818,2.533C810.684,1593.269,810.565,1593.279,810.446,1593.279z"/>
							<path style="fill:#363E44;" d="M803.564,1555.447c-1.087,0-2.034-0.804-2.182-1.911l-2.4-17.882
								c-0.161-1.207,0.686-2.317,1.893-2.479c1.204-0.156,2.317,0.685,2.478,1.892l2.4,17.882c0.161,1.207-0.686,2.317-1.893,2.479
								C803.761,1555.441,803.662,1555.447,803.564,1555.447z"/>
							<path style="fill:#363E44;" d="M798.868,1515.179c-1.06,0-1.995-0.766-2.174-1.846c-0.485-2.94-0.904-5.596-1.323-8.253
								c-0.419-2.649-0.836-5.298-1.321-8.228c-0.198-1.201,0.615-2.336,1.816-2.535c1.201-0.208,2.336,0.615,2.535,1.816
								c0.486,2.942,0.905,5.601,1.325,8.26c0.417,2.646,0.834,5.292,1.319,8.221c0.198,1.202-0.615,2.336-1.816,2.535
								C799.108,1515.169,798.986,1515.179,798.868,1515.179z"/>
							<path style="fill:#363E44;" d="M792.047,1482.488c-0.999,0-1.905-0.684-2.143-1.699l-3.631-15.377
								c-0.28-1.185,0.454-2.373,1.639-2.652c1.186-0.281,2.373,0.454,2.653,1.639l3.631,15.377c0.28,1.185-0.454,2.373-1.638,2.652
								C792.385,1482.468,792.215,1482.488,792.047,1482.488z"/>
						</g>
					</g>
				</g>
				<g>
					<path style="fill:#84524D;" d="M1015.806,1538.238l64.607,163.191c17.487,44.17,67.909,65.282,111.65,46.749
						c47.475-20.115,66.063-77.662,39.326-121.749l-89.715-147.933L1015.806,1538.238z"/>
					<g>
						<g>
							<path style="fill:#F7F1EB;" d="M865.97,1606.361c-0.245,0-0.495-0.041-0.74-0.128c-1.148-0.409-1.746-1.67-1.337-2.817
								l88.239-247.747c0.312-0.879,1.144-1.465,2.077-1.465c0.006,0,0.013,0,0.019,0l193.446,1.692
								c1.218,0.011,2.196,1.007,2.185,2.224c-0.011,1.218-1.053,2.197-2.224,2.186l-191.876-1.678l-87.713,246.268
								C867.726,1605.798,866.876,1606.361,865.97,1606.361z"/>
						</g>
						<g>
							<polygon style="fill:#363E44;" points="1073.954,1620.002 880.507,1620.002 968.746,1373.062 1162.192,1373.062 							"/>
						</g>
					</g>
					<g>
						<path style="fill:#84524D;" d="M1099.473,1533.64c17.061,9.71,19.126,21.079,13.721,30.577
							c-5.406,9.498-16.235,13.527-33.296,3.816c-17.061-9.711-33.894-29.484-28.489-38.982
							C1056.815,1519.554,1082.412,1523.929,1099.473,1533.64z"/>
						<path style="fill:#84524D;" d="M1114.427,1498.67c19.774,11.255,22.168,24.431,15.903,35.439
							c-6.265,11.008-18.817,15.678-38.591,4.423c-19.775-11.255-39.284-34.173-33.019-45.181
							C1064.986,1482.344,1094.653,1487.415,1114.427,1498.67z"/>
						<path style="fill:#84524D;" d="M1130.824,1478.557c17.061,9.71,27.891,5.681,33.296-3.817
							c5.406-9.497,3.341-20.866-13.721-30.577c-17.061-9.711-42.658-14.086-48.064-4.589
							C1096.93,1449.072,1113.763,1468.846,1130.824,1478.557z"/>
						<path style="fill:#84524D;" d="M1108.394,1509.271c19.774,11.255,32.326,6.584,38.591-4.423
							c6.265-11.008,3.872-24.184-15.903-35.439c-19.775-11.255-49.442-16.326-55.707-5.318
							C1069.11,1475.098,1088.619,1498.016,1108.394,1509.271z"/>
						<path style="fill:#363E44;" d="M1097.455,1575.822c-0.718,0-1.448-0.033-2.189-0.1c-1.213-0.109-2.107-1.181-1.998-2.394
							c0.11-1.212,1.188-2.11,2.394-1.998c6.917,0.628,12.163-2.137,15.615-8.204c3.308-5.811,3.156-11.509-0.454-16.935
							c-0.446-0.67-0.491-1.529-0.12-2.241c0.373-0.713,1.104-1.167,1.907-1.184c6.891-0.15,12.208-3.429,15.804-9.746
							c3.193-5.612,3.625-11.201,1.282-16.613c-0.275-0.636-0.235-1.364,0.108-1.966c0.342-0.602,0.948-1.008,1.635-1.097
							c5.851-0.75,10.436-3.976,13.628-9.586c0.602-1.058,1.947-1.429,3.007-0.826c1.058,0.602,1.427,1.948,0.826,3.007
							c-3.369,5.921-8.25,9.777-14.223,11.276c1.761,5.898,0.939,12.065-2.431,17.986c-3.727,6.548-9.215,10.525-16.005,11.65
							c2.762,5.953,2.39,12.271-1.132,18.458C1111.22,1572.144,1105.005,1575.822,1097.455,1575.822z"/>
					</g>
				</g>
				<path style="fill:#F2E6DC;" d="M474.912,1548.692c3.954-1.791-67.367,145.929,35.386,197.335c0,0-35.059,25.088-77.259,13.18
					C390.839,1747.299,346.826,1606.713,474.912,1548.692z"/>
				<path style="fill:#F2E6DC;" d="M1065.029,1696.037c0,0,136.871,52.764,164.591-91.881l23.723,56.473
					c0,0,18.664,68.27-47.447,98.578C1139.786,1789.515,1086.582,1745.609,1065.029,1696.037z"/>
			</g>
			<g>
				
					<ellipse transform="matrix(0.9925 -0.1222 0.1222 0.9925 -133.9798 109.0788)" style="fill:#363E44;" cx="822.411" cy="1146.977" rx="93.419" ry="93.418"/>
				<path style="fill:#84524D;" d="M886.937,1193.541c-11.821-6.531-32.075-23.974-38.606-12.153l-76.638,122.559
					c-6.531,11.821,32.673,7.707,44.494,14.238c11.821,6.531,26.699,2.243,33.23-9.579l47.099-81.836
					C903.047,1214.95,898.758,1200.072,886.937,1193.541z"/>
				<path style="fill:#84524D;" d="M878.092,1313.415c10.592,38.792-19.896,97.481-19.896,97.481s-112.274-54.487-112.274-97.481
					c0-10.989,29.587-19.896,66.085-19.896C848.505,1293.519,875.198,1302.815,878.092,1313.415z"/>
				<g>
					<path style="fill:#84524D;" d="M948.796,1227.26c-10.604,19.844-72.759,11.312-72.759,11.312l-54.203-42.27
						c-14.123-28.326-2.609-62.737,25.717-76.86c28.326-14.123,62.737-2.609,76.86,25.718
						C924.411,1145.16,959.596,1207.049,948.796,1227.26z"/>
					<path style="fill:#84524D;" d="M925.242,1161.584c0,0,21.901,7.899,23.119,12.26c1.455,5.205-13.125,16.092-13.125,16.092
						S925.642,1161.43,925.242,1161.584z"/>
					<g>
						<path style="fill:#FFFFFF;" d="M877.862,1182.467c0,0,6.284-8.899,16.635-14.06c2.202-1.098,6.834,18.596,4.246,18.641
							C887.364,1187.243,877.862,1182.467,877.862,1182.467z"/>
						<g>
							<defs>
								<path id="SVGID_1_" d="M877.862,1182.467c0,0,9.242-13.089,23.773-16.724c14.53-3.635,28.846,3.561,28.846,3.561
									s-9.242,13.089-23.773,16.724C892.178,1189.663,877.862,1182.467,877.862,1182.467z"/>
							</defs>
							<clipPath id="SVGID_00000145754794700751239470000006339588196834753691_">
								<use xlink:href="#SVGID_1_"  style="overflow:visible;"/>
							</clipPath>
							<path style="clip-path:url(#SVGID_00000145754794700751239470000006339588196834753691_);fill:#363E44;" d="
								M894.709,1167.735c3.433-10.259,14.532-15.793,24.791-12.36c10.259,3.433,15.793,14.532,12.361,24.791
								c-3.433,10.259-14.532,15.793-24.791,12.36C896.81,1189.094,891.276,1177.995,894.709,1167.735z"/>
						</g>
					</g>
					<path style="fill:#363E44;" d="M923.386,1208.195c-0.38,0-0.762-0.021-1.146-0.065c-3.842-0.437-7.173-3.083-8.487-6.742
						c-0.411-1.146,0.185-2.408,1.331-2.819c1.144-0.411,2.408,0.183,2.821,1.331c0.749,2.09,2.647,3.601,4.833,3.849
						c2.263,0.259,4.499-0.855,5.679-2.837c0.623-1.045,1.974-1.389,3.023-0.766c1.046,0.623,1.389,1.976,0.767,3.023
						C930.34,1206.303,926.964,1208.195,923.386,1208.195z"/>
				</g>
				<path style="fill:#363E44;" d="M780.992,1206.722c0,0,80.535,3.553,131.46-76.982c50.926-80.534-88.824-75.797-146.857-48.557
					C728.426,1098.631,780.992,1206.722,780.992,1206.722z"/>
				<path style="fill:#40484C;" d="M800.984,1272.351c-2.585,0-4.276-0.263-4.473-0.295c-1.2-0.196-2.013-1.326-1.819-2.527
					c0.194-1.201,1.328-2.019,2.526-1.826c0.129,0.021,12.666,1.913,22.281-5.815c6.842-5.498,10.679-14.539,11.404-26.872
					c1.08-18.366-11.881-28.538-21.345-35.967c-5.82-4.569-10.025-7.869-9.178-12.009c0.794-3.872,5.889-6.661,18.176-9.949
					c43.716-11.696,69.159-63.19,69.411-63.709c0.532-1.094,1.846-1.553,2.947-1.021c1.095,0.532,1.552,1.85,1.022,2.946
					c-1.063,2.192-26.553,53.821-72.24,66.045c-13.033,3.487-14.828,5.759-14.995,6.573c-0.301,1.47,4.07,4.9,7.58,7.656
					c9.652,7.576,24.24,19.025,23.023,39.695c-0.803,13.655-5.205,23.777-13.086,30.085
					C814.783,1271.312,806.122,1272.351,800.984,1272.351z"/>
				<g>
					<path style="fill:#363E44;" d="M848.004,1102.297c0,0-33.96-163.057-84.689-146.581
						C712.587,972.19,811.126,1118.337,848.004,1102.297z"/>
					<path style="fill:#363E44;" d="M814.735,1117.254c0,0-72.775-191.979-134.479-162.134
						C618.553,984.965,770.612,1143.897,814.735,1117.254z"/>
					<path style="fill:#363E44;" d="M800.457,1116.984c0,0-163.582-174.544-213.465-116.405
						C537.109,1058.717,767.231,1164.231,800.457,1116.984z"/>
					<path style="fill:#363E44;" d="M771.179,1140.21c0,0-146.323-113.75-179.849-61.747
						C557.804,1130.467,749.696,1181.482,771.179,1140.21z"/>
					<path style="fill:#363E44;" d="M678.467,1149.552c-33.963,0-66.372-6.381-80.563-20.107
						c-7.359-7.117-9.699-15.645-6.951-25.346c2.462-8.692,8.181-15.344,16.999-19.772c47.318-23.758,170.721,22.794,175.951,24.788
						l1.718,0.655l-0.335,1.807c-2.125,11.465-14.846,21.232-36.786,28.247C728.598,1146.187,703.121,1149.552,678.467,1149.552z
						 M644.082,1082.024c-13.405,0-25.29,1.795-34.152,6.245c-7.774,3.904-12.594,9.475-14.733,17.032
						c-2.272,8.017-0.328,15.074,5.772,20.975c23.475,22.7,100.002,24.114,146.188,9.348c18.767-6,30.49-14.136,33.344-23.069
						C768.04,1107.981,695.061,1082.024,644.082,1082.024z"/>
					<path style="fill:#363E44;" d="M785.852,1107.257c-9.839,0-22.02-5.937-35.771-17.526
						c-37.987-32.011-78.373-99.682-71.352-133.025c2.11-10.019,8.085-16.537,17.761-19.374c8.668-2.54,17.342-1.239,25.785,3.871
						c45.297,27.42,71.549,156.672,72.644,162.16l0.361,1.803l-1.708,0.678C791.194,1106.789,788.616,1107.257,785.852,1107.257z
						 M705.149,940.466c-2.455,0-4.922,0.367-7.419,1.099c-7.996,2.344-12.937,7.744-14.687,16.05
						c-6.729,31.953,32.8,97.499,69.878,128.745c15.067,12.696,28.2,18.289,37.274,15.955
						c-3.483-16.399-29.457-132.674-70.205-157.339C715.014,941.963,710.108,940.466,705.149,940.466z"/>
					<path style="fill:#363E44;" d="M830.677,1082.27c0,0-25.987-76.323,12.027-73.616
						C880.718,1011.361,830.677,1082.27,830.677,1082.27z"/>
					<path style="fill:#363E44;" d="M745.615,1139.762c0,0-103.625-23.082-91.985,30.67
						C665.269,1224.183,745.615,1139.762,745.615,1139.762z"/>
				</g>
			</g>
			<g>
				<path style="fill:#8B865C;" d="M805.186,2024.637l61.864,135.546h237.419l-153.272-428.788l-312.574,0.352
					c-78.41,120.836-104.567,267.483-97.03,428.435h259.335L805.186,2024.637z"/>
				<path style="fill:#363E44;" d="M805.187,2026.943c-0.012,0-0.023,0-0.033,0c-1.218-0.018-2.19-1.019-2.172-2.237l0.776-53.577
					c0.012-0.838,0.499-1.596,1.253-1.957l35.719-17.083c1.093-0.525,2.414-0.062,2.941,1.038c0.525,1.099,0.06,2.415-1.038,2.94
					l-34.486,16.493l-0.756,52.21C807.374,2025.977,806.39,2026.943,805.187,2026.943z"/>
				<rect x="636.719" y="1686.146" style="fill:#8B865C;" width="315.289" height="52.916"/>
				<path style="fill:#363E44;" d="M852.791,1734.653H656.562c-1.218,0-2.205-0.987-2.205-2.205c0-1.218,0.987-2.205,2.205-2.205
					h196.229c1.218,0,2.205,0.987,2.205,2.205C854.996,1733.665,854.009,1734.653,852.791,1734.653z"/>
			</g>
		</g>
	</g>
</g>
</svg>
