<?xml version="1.0" encoding="utf-8"?>
<!-- Generator: Adobe Illustrator 27.5.0, SVG Export Plug-In . SVG Version: 6.00 Build 0)  -->
<svg version="1.1" xmlns="http://www.w3.org/2000/svg" xmlns:xlink="http://www.w3.org/1999/xlink" x="0px" y="0px"
	 viewBox="0 0 500 500" style="enable-background:new 0 0 500 500;" xml:space="preserve">
<!-- <g id="BACKGROUND">
	<rect style="fill:#FFFFFF;" width="500" height="500"/>
	<path style="fill:#9ACEDB;" d="M296.389,66.631c-39.507-0.285-79.326,1.34-117.78,10.413c-38.453,9.074-75.72,25.997-104.381,53.19
		c-28.661,27.193-48.011,65.352-47.845,104.862c0.17,40.794,21.047,79.762,50.898,107.566
		c29.851,27.806,67.989,45.376,107.167,56.747c53.946,15.657,112.323,20.153,166.169,4.156
		c53.845-15.999,102.457-54.339,123.003-106.619c19.934-50.718,11.141-111.192-20.741-155.387
		C420.996,97.364,367.584,67.146,296.389,66.631z"/>
</g> -->
<g id="OBJECTS">
	<g>
		<g>
			<g>
				<path style="opacity:0.15;fill:#2E2854;" d="M459.323,106.304c-8.903-5.872-21.828-4.146-29.342,3.423
					c-7.512,7.568-9.277,20.007-4.759,29.667c2.303,4.921,6.145,9.198,11.039,11.56c7.188,3.473,16.23,2.378,22.68-2.324
					c6.451-4.701,10.223-12.694,10.259-20.675C469.239,119.972,466.535,111.06,459.323,106.304z"/>
				<path style="fill:#FFFFFF;" d="M456.269,101.687c-8.903-5.872-21.828-4.146-29.342,3.423
					c-7.513,7.568-9.277,20.007-4.759,29.667c2.303,4.921,6.145,9.198,11.039,11.56c7.188,3.473,16.23,2.378,22.68-2.324
					c6.451-4.701,10.223-12.694,10.259-20.675C466.185,115.354,463.48,106.442,456.269,101.687z"/>
				<path style="fill:none;stroke:#2E2854;stroke-linecap:round;stroke-linejoin:round;stroke-miterlimit:10;" d="M456.269,101.687
					c-8.903-5.872-21.828-4.146-29.342,3.423c-7.513,7.568-9.277,20.007-4.759,29.667c2.303,4.921,6.145,9.198,11.039,11.56
					c7.188,3.473,16.23,2.378,22.68-2.324c6.451-4.701,10.223-12.694,10.259-20.675C466.185,115.354,463.48,106.442,456.269,101.687
					z"/>
			</g>
			<g>
				<path style="fill:#F7A145;" d="M431.663,119.492c0-3.157,2.036-4.964,4.735-4.964c2.698,0,4.735,1.807,4.735,4.964
					c0,3.182-2.037,4.964-4.735,4.964C433.7,124.455,431.663,122.673,431.663,119.492z M446.861,114.782h4.301l-12.168,17.819
					h-4.301L446.861,114.782z M437.518,119.492c0-1.706-0.56-2.215-1.12-2.215c-0.56,0-1.121,0.509-1.121,2.215
					c0,1.705,0.56,2.214,1.121,2.214C436.958,121.706,437.518,121.197,437.518,119.492z M444.722,127.892
					c0-3.156,2.036-4.964,4.734-4.964c2.699,0,4.735,1.807,4.735,4.964c0,3.182-2.036,4.964-4.735,4.964
					C446.759,132.856,444.722,131.074,444.722,127.892z M450.577,127.892c0-1.705-0.56-2.215-1.121-2.215
					c-0.559,0-1.12,0.51-1.12,2.215c0,1.706,0.56,2.215,1.12,2.215C450.017,130.107,450.577,129.597,450.577,127.892z"/>
			</g>
		</g>
		<g>
			<g>
				<path style="opacity:0.15;fill:#2E2854;" d="M74.991,316.031c9.761,4.984,15.668,16.591,13.955,27.417
					c-1.714,10.826-10.917,20.038-21.741,21.765c-10.824,1.725-22.437-4.17-27.432-13.927c-4.995-9.755-2.989-22.623,4.739-30.396
					C52.239,313.118,65.119,310.991,74.991,316.031z"/>
				<path style="fill:#FFFFFF;" d="M68.279,309.358c9.761,4.984,15.668,16.592,13.955,27.417
					c-1.714,10.826-10.918,20.038-21.741,21.765c-10.824,1.725-22.437-4.17-27.432-13.926c-4.995-9.755-2.989-22.623,4.739-30.396
					C45.526,306.445,58.406,304.318,68.279,309.358z"/>
				<path style="fill:none;stroke:#2E2854;stroke-linecap:round;stroke-linejoin:round;stroke-miterlimit:10;" d="M68.279,309.358
					c9.761,4.984,15.668,16.592,13.955,27.417c-1.714,10.826-10.918,20.038-21.741,21.765c-10.824,1.725-22.437-4.17-27.432-13.926
					c-4.995-9.755-2.989-22.623,4.739-30.396C45.526,306.445,58.406,304.318,68.279,309.358z"/>
			</g>
			<g>
				<path style="fill:#F7A145;" d="M66.819,321.418c-4.698-4.597-12.412-5.759-18.257-2.751c-5.846,3.008-9.385,9.959-8.375,16.456
					c1.008,6.496,6.488,12.048,12.97,13.142c6.483,1.094,13.48-2.354,16.564-8.158C72.805,334.299,71.914,326.403,66.819,321.418z"
					/>
				<path style="fill:#FF8330;" d="M63.235,323.401c-3.864-3.106-9.731-3.421-13.906-0.747c-4.173,2.673-6.34,8.136-5.136,12.943
					c1.206,4.808,5.692,8.602,10.634,8.991c4.941,0.388,9.968-2.658,11.909-7.218C68.678,332.808,67.558,326.875,63.235,323.401z"/>
				<g>
					<path style="fill:#F7A145;" d="M56.778,331.676c0.254,0.065,0.507,0.135,0.761,0.213c0.253,0.077,0.499,0.168,0.735,0.272
						c0.236,0.104,0.458,0.226,0.664,0.365c0.207,0.139,0.388,0.305,0.544,0.499c0.155,0.193,0.28,0.417,0.372,0.669
						c0.093,0.253,0.145,0.547,0.156,0.881c0.018,0.496-0.049,0.965-0.201,1.408c-0.152,0.442-0.384,0.837-0.696,1.186
						c-0.312,0.348-0.699,0.636-1.162,0.865c-0.462,0.228-0.996,0.376-1.6,0.445l-0.06,0.975c-0.005,0.146-0.064,0.281-0.179,0.402
						c-0.113,0.122-0.26,0.186-0.444,0.192l-0.893,0.032l0.1-1.62c-0.604-0.078-1.184-0.232-1.739-0.46
						c-0.555-0.229-1.026-0.512-1.414-0.849l0.713-1.116c0.061-0.091,0.142-0.169,0.247-0.232c0.105-0.064,0.218-0.098,0.337-0.102
						c0.126-0.005,0.255,0.024,0.387,0.084c0.134,0.061,0.278,0.135,0.436,0.22c0.158,0.086,0.33,0.174,0.52,0.264
						c0.188,0.09,0.402,0.163,0.639,0.217l0.186-2.964c-0.38-0.091-0.759-0.201-1.138-0.329c-0.379-0.128-0.721-0.307-1.028-0.536
						c-0.306-0.23-0.559-0.527-0.757-0.891c-0.198-0.364-0.308-0.826-0.327-1.385c-0.015-0.413,0.054-0.818,0.209-1.215
						c0.153-0.398,0.384-0.76,0.695-1.084c0.31-0.325,0.697-0.596,1.16-0.814c0.462-0.217,0.996-0.353,1.602-0.405l0.055-0.873
						c0.005-0.147,0.064-0.281,0.179-0.403c0.113-0.121,0.26-0.185,0.444-0.192l0.893-0.032l-0.094,1.541
						c0.567,0.085,1.058,0.237,1.471,0.458c0.414,0.22,0.766,0.46,1.057,0.716l-0.565,0.891c-0.083,0.134-0.171,0.233-0.26,0.296
						c-0.089,0.063-0.196,0.097-0.322,0.101c-0.078,0.003-0.172-0.013-0.28-0.049c-0.109-0.035-0.226-0.078-0.353-0.129
						c-0.127-0.05-0.264-0.103-0.41-0.158c-0.145-0.055-0.3-0.104-0.464-0.145L56.778,331.676z M55.478,328.873
						c-0.24,0.046-0.439,0.107-0.601,0.186c-0.162,0.079-0.293,0.17-0.391,0.273c-0.097,0.103-0.169,0.217-0.211,0.341
						c-0.043,0.125-0.061,0.254-0.056,0.39c0.011,0.309,0.119,0.555,0.324,0.738c0.206,0.184,0.468,0.335,0.786,0.455
						L55.478,328.873z M56.476,336.481c0.857-0.171,1.272-0.66,1.243-1.464c-0.011-0.303-0.115-0.539-0.311-0.707
						c-0.198-0.168-0.454-0.306-0.772-0.416L56.476,336.481z"/>
				</g>
			</g>
		</g>
		<g>
			<g>
				<path style="opacity:0.15;fill:#2E2854;" d="M78.256,98.298C71.236,93.7,62.032,92.722,54.112,95.5
					c-7.922,2.776-14.434,9.176-17.6,16.95c-3.165,7.773-3.004,16.788,0.188,24.551c3.437,8.362,10.451,15.279,19.015,18.178
					c8.564,2.899,18.544,1.575,25.803-3.815c7.926-5.886,12.062-16.182,11.311-26.025C92.08,115.496,88.012,104.688,78.256,98.298z"
					/>
				<path style="fill:#FFFFFF;" d="M75.739,91.794c-7.021-4.598-16.225-5.576-24.145-2.798c-7.922,2.776-14.434,9.176-17.6,16.95
					c-3.165,7.773-3.004,16.788,0.188,24.551c3.437,8.362,10.451,15.279,19.015,18.178s18.544,1.575,25.804-3.815
					c7.926-5.886,12.062-16.183,11.311-26.025C89.563,108.992,85.494,98.184,75.739,91.794z"/>
				<path style="fill:none;stroke:#2E2854;stroke-linecap:round;stroke-linejoin:round;stroke-miterlimit:10;" d="M75.739,91.794
					c-7.021-4.598-16.225-5.576-24.145-2.798c-7.922,2.776-14.434,9.176-17.6,16.95c-3.165,7.773-3.004,16.788,0.188,24.551
					c3.437,8.362,10.451,15.279,19.015,18.178s18.544,1.575,25.804-3.815c7.926-5.886,12.062-16.183,11.311-26.025
					C89.563,108.992,85.494,98.184,75.739,91.794z"/>
			</g>
			<g>
				<path style="fill:#2E2854;" d="M72.785,129.61v2.826h-3.589v-2.699c-2.545-0.153-5.015-0.84-6.542-1.782l1.935-4.378
					c1.68,0.993,3.92,1.629,5.88,1.629c1.705,0,2.316-0.356,2.316-0.967c0-2.24-9.851-0.432-9.851-7.076
					c0-2.877,2.087-5.294,6.262-5.88v-2.775h3.589v2.724c1.884,0.178,3.717,0.662,5.168,1.476l-1.807,4.353
					c-1.757-0.891-3.411-1.324-4.964-1.324c-1.756,0-2.316,0.509-2.316,1.12c0,2.138,9.852,0.356,9.852,6.924
					C78.716,126.531,76.73,128.923,72.785,129.61z"/>
			</g>
			<polygon style="fill:#76C9BF;" points="59.745,113.751 52.769,101.667 45.792,113.751 50.177,113.751 50.177,132.436 
				55.36,132.436 55.36,113.751 			"/>
		</g>
		<g>
			<g>
				<path style="opacity:0.15;fill:#2E2854;" d="M304.472,47.196c-13.666-2.016-29.095,1.818-37.198,13.006
					c-5.223,7.213-6.785,16.731-5.083,25.472c2.459,12.63,11.807,23.756,23.915,28.115c12.107,4.358,26.538,1.667,36.093-6.952
					c9.554-8.621,13.702-22.863,10.03-35.196C328.555,59.308,317.22,49.077,304.472,47.196z"/>
				<path style="fill:#FFFFFF;" d="M299.153,40.792c-13.666-2.016-29.095,1.818-37.198,13.006
					c-5.223,7.213-6.785,16.73-5.083,25.472c2.459,12.63,11.807,23.756,23.915,28.115c12.107,4.358,26.537,1.667,36.093-6.952
					c9.554-8.621,13.702-22.863,10.03-35.196C323.235,52.904,311.9,42.673,299.153,40.792z"/>
				<path style="fill:none;stroke:#2E2854;stroke-linecap:round;stroke-linejoin:round;stroke-miterlimit:10;" d="M299.153,40.792
					c-13.666-2.016-29.095,1.818-37.198,13.006c-5.223,7.213-6.785,16.73-5.083,25.472c2.459,12.63,11.807,23.756,23.915,28.115
					c12.107,4.358,26.537,1.667,36.093-6.952c9.554-8.621,13.702-22.863,10.03-35.196C323.235,52.904,311.9,42.673,299.153,40.792z"
					/>
			</g>
			<g>
				<rect x="272.698" y="57.296" style="fill:#76C9BF;" width="7.133" height="30.628"/>
				<rect x="283.338" y="63.065" style="fill:#2E2854;" width="7.133" height="24.859"/>
				<rect x="293.977" y="68.834" style="fill:#2E2854;" width="7.133" height="19.09"/>
				<rect x="304.617" y="74.603" style="fill:#2E2854;" width="7.133" height="13.321"/>
			</g>
		</g>
	</g>
	<g>
		<path style="fill:#FFFFFF;" d="M330.349,364.796c-1.873-1.367-4.816-0.919-6.197,0.943c-1.382,1.861-0.959,4.807,0.89,6.204
			c1.849,1.397,4.799,1,6.213-0.837C332.668,369.269,332.344,366.251,330.349,364.796z"/>
		<path style="fill:#FFFFFF;" d="M58.999,184.671c-1.873-1.367-4.817-0.919-6.197,0.943c-1.382,1.861-0.959,4.807,0.89,6.204
			c1.849,1.397,4.799,1,6.212-0.837C61.317,189.143,60.994,186.125,58.999,184.671z"/>
		<path style="fill:#BDE6F0;" d="M354.29,100.851c-1.873-1.367-4.816-0.919-6.197,0.943c-1.382,1.861-0.959,4.807,0.89,6.204
			c1.849,1.397,4.798,1,6.212-0.837C356.609,105.323,356.285,102.306,354.29,100.851z"/>
		<path style="fill:#9ACEDB;" d="M70.025,426.835c-1.873-1.367-4.816-0.919-6.197,0.943c-1.382,1.861-0.96,4.807,0.89,6.204
			c1.849,1.397,4.799,1,6.213-0.837C72.343,431.307,72.019,428.289,70.025,426.835z"/>
		<path style="fill:#9ACEDB;" d="M449.254,371.048c-1.873-1.367-4.816-0.919-6.197,0.943c-1.382,1.861-0.96,4.807,0.89,6.204
			c1.849,1.397,4.799,1,6.213-0.837C451.573,375.521,451.249,372.503,449.254,371.048z"/>
		<path style="fill:#9ACEDB;" d="M83.618,63.007c-1.873-1.367-4.816-0.919-6.197,0.943c-1.382,1.861-0.959,4.807,0.89,6.204
			c1.849,1.397,4.799,1,6.213-0.837C85.937,67.479,85.613,64.461,83.618,63.007z"/>
		<path style="fill:#9ACEDB;" d="M410.855,50.544c-1.873-1.367-4.817-0.919-6.197,0.943c-1.382,1.861-0.959,4.807,0.89,6.204
			c1.849,1.397,4.798,1,6.212-0.837C413.174,55.016,412.85,51.999,410.855,50.544z"/>
		<path style="fill:#FFFFFF;" d="M266,144.165c-1.071-0.781-2.752-0.525-3.542,0.539c-0.789,1.064-0.548,2.747,0.509,3.546
			c1.057,0.799,2.743,0.572,3.551-0.479C267.326,146.721,267.14,144.996,266,144.165z"/>
		<path style="fill:#9ACEDB;" d="M360.717,49.575c-1.071-0.781-2.752-0.525-3.542,0.539c-0.789,1.064-0.548,2.747,0.509,3.546
			c1.057,0.799,2.743,0.572,3.551-0.478C362.043,52.131,361.857,50.407,360.717,49.575z"/>
		<path style="fill:#9ACEDB;" d="M461.773,357.775c-1.071-0.781-2.752-0.525-3.542,0.539c-0.789,1.064-0.548,2.747,0.509,3.546
			c1.057,0.799,2.743,0.572,3.551-0.478C463.098,360.331,462.913,358.606,461.773,357.775z"/>
		<path style="fill:#9ACEDB;" d="M486.734,168.875c-1.071-0.781-2.752-0.525-3.542,0.539c-0.789,1.064-0.548,2.747,0.509,3.546
			c1.057,0.799,2.743,0.572,3.551-0.479C488.06,171.431,487.874,169.706,486.734,168.875z"/>
		<path style="fill:#9ACEDB;" d="M259.778,428.375c-1.071-0.781-2.752-0.525-3.542,0.539c-0.789,1.064-0.548,2.747,0.509,3.546
			c1.057,0.799,2.743,0.572,3.551-0.478C261.103,430.931,260.917,429.206,259.778,428.375z"/>
		<path style="fill:#9ACEDB;" d="M16.7,312.642c-1.071-0.781-2.752-0.525-3.542,0.539c-0.789,1.064-0.548,2.747,0.509,3.546
			c1.057,0.799,2.743,0.572,3.551-0.478C18.025,315.198,17.84,313.474,16.7,312.642z"/>
		<path style="fill:#9ACEDB;" d="M40.59,54.924c-1.071-0.781-2.752-0.525-3.542,0.539c-0.789,1.064-0.548,2.747,0.509,3.546
			c1.057,0.799,2.743,0.572,3.551-0.478C41.916,57.48,41.73,55.755,40.59,54.924z"/>
		<path style="fill:#BDE6F0;" d="M53.483,253.73c-1.071-0.781-2.752-0.525-3.542,0.539c-0.789,1.064-0.548,2.747,0.509,3.546
			c1.057,0.799,2.743,0.572,3.551-0.479C54.809,256.287,54.623,254.562,53.483,253.73z"/>
		<path style="fill:#BDE6F0;" d="M461.773,234.875c-1.071-0.781-2.752-0.525-3.542,0.539c-0.789,1.064-0.548,2.747,0.509,3.546
			c1.057,0.799,2.743,0.572,3.551-0.478C463.098,237.431,462.913,235.707,461.773,234.875z"/>
		<path style="fill:#BDE6F0;" d="M277.328,381.728c-1.071-0.781-2.752-0.525-3.542,0.539c-0.789,1.064-0.548,2.747,0.509,3.546
			c1.057,0.799,2.742,0.572,3.551-0.479C278.654,384.284,278.468,382.56,277.328,381.728z"/>
		<path style="fill:#BDE6F0;" d="M225.713,166.366c-1.071-0.781-2.752-0.525-3.542,0.539c-0.789,1.064-0.548,2.747,0.509,3.546
			c1.057,0.799,2.743,0.572,3.551-0.479C227.039,168.922,226.853,167.197,225.713,166.366z"/>
	</g>
	<g>
		<defs>
			<rect id="SVGID_1_" width="500" height="500"/>
		</defs>
		<clipPath id="SVGID_00000045593308174663946560000016346076772996306316_">
			<use xlink:href="#SVGID_1_"  style="overflow:visible;"/>
		</clipPath>
		
			<rect x="163.052" y="456.152" style="clip-path:url(#SVGID_00000045593308174663946560000016346076772996306316_);fill:#9ACEDB;" width="275.927" height="56.542"/>
		<g style="clip-path:url(#SVGID_00000045593308174663946560000016346076772996306316_);">
			<g>
				<path style="opacity:0.15;fill:#2E2854;" d="M363.143,373.563c-1.381-6.969-5.492-13.198-10.707-18.024
					c-5.214-4.827-11.498-8.355-17.955-11.318c-5.622-2.58-11.574-4.862-16.023-9.16c-4.45-4.296-6.993-11.332-4.086-16.791
					c1.991-3.74,6.066-5.934,10.164-7.016c9.748-2.576,20.457,0.156,28.65,6.032c8.193,5.878,14.024,14.626,17.682,24.023
					c3.658,9.395,5.275,19.461,6.254,29.497L363.143,373.563z"/>
				<path style="fill:#49AD9F;stroke:#49AD9F;stroke-linecap:round;stroke-linejoin:round;stroke-miterlimit:10;" d="
					M362.463,371.248c-0.874-7.051-4.526-13.56-9.378-18.749c-4.853-5.191-10.865-9.163-17.092-12.584
					c-5.421-2.979-11.193-5.685-15.321-10.292c-4.129-4.606-6.158-11.807-2.863-17.042c2.256-3.587,6.479-5.481,10.643-6.265
					c9.909-1.866,20.393,1.632,28.14,8.083c7.747,6.454,12.932,15.6,15.903,25.236c2.971,9.635,3.857,19.791,4.109,29.871
					L362.463,371.248z"/>
				<path style="fill:none;stroke:#2E2854;stroke-linecap:round;stroke-linejoin:round;stroke-miterlimit:10;" d="M332.474,321.716
					c11.005,2.566,21.045,9.086,27.865,18.097c6.82,9.012,10.369,20.444,9.85,31.733"/>
			</g>
			<g>
				<path style="opacity:0.15;fill:#2E2854;" d="M389.029,372.307c3.722-9.719,12.592-16.445,21.505-21.818
					c8.913-5.372,18.513-10.105,25.412-17.897c2.603-2.94,4.801-6.349,5.687-10.174c0.886-3.825,0.317-8.11-2.123-11.186
					c-2.931-3.698-8.1-5.075-12.78-4.464c-4.68,0.609-8.962,2.919-12.913,5.499c-19.759,12.907-34.013,33.961-38.66,57.098
					L389.029,372.307z"/>
				<path style="fill:#49AD9F;stroke:#49AD9F;stroke-linecap:round;stroke-linejoin:round;stroke-miterlimit:10;" d="
					M388.152,369.742c3.115-9.93,11.553-17.191,20.118-23.103c8.564-5.912,17.854-11.228,24.259-19.431
					c2.417-3.095,4.4-6.634,5.048-10.506c0.648-3.872-0.184-8.114-2.809-11.034c-3.154-3.51-8.398-4.565-13.031-3.667
					c-4.633,0.897-8.765,3.466-12.549,6.285c-18.925,14.102-31.853,35.995-35.063,59.375L388.152,369.742z"/>
				<path style="fill:none;stroke:#2E2854;stroke-linecap:round;stroke-linejoin:round;stroke-miterlimit:10;" d="M379.421,370.444
					c4.85-21.503,19.814-40.498,39.583-50.247"/>
			</g>
			<g>
				<g>
					<path style="opacity:0.15;fill:#2E2854;" d="M375.721,277.709c2.732-12.197,10.605-24.959,20.278-32.876
						c2.105-1.723,4.38-3.317,6.97-4.146c2.59-0.828,5.554-0.81,7.899,0.566c4.196,2.463,5.013,8.624,2.743,12.927
						c-2.27,4.303-6.778,6.973-11.357,8.618c-4.578,1.645-9.427,2.489-13.926,4.339C383.83,268.986,378.566,273.654,375.721,277.709
						z"/>
					<path style="fill:#49AD9F;stroke:#49AD9F;stroke-linecap:round;stroke-linejoin:round;stroke-miterlimit:10;" d="
						M375.721,277.134c0.887-12.468,7.488-26.167,15.875-35.435c1.825-2.017,3.838-3.932,6.276-5.136
						c2.438-1.204,5.372-1.627,7.896-0.615c4.516,1.812,6.24,7.783,4.635,12.375c-1.605,4.592-5.666,7.903-9.948,10.212
						c-4.283,2.308-8.952,3.864-13.126,6.362C383.157,267.394,377.932,272.701,375.721,277.134z"/>
					<path style="fill:none;stroke:#2E2854;stroke-linecap:round;stroke-linejoin:round;stroke-miterlimit:10;" d="M399.852,245.372
						c-10.659,6.979-19.89,19.747-24.131,31.762"/>
				</g>
				<g>
					<path style="opacity:0.15;fill:#2E2854;" d="M367.783,216.798c-3.41-14.208-1.731-31.756,3.736-45.308
						c1.683-4.173,3.95-8.389,7.791-10.733c3.842-2.342,9.607-2.02,12.077,1.741c2.092,3.188,1.172,7.456-0.321,10.965
						C385.252,187.143,371.597,199.495,367.783,216.798z"/>
					<path style="fill:#49AD9F;stroke:#49AD9F;stroke-linecap:round;stroke-linejoin:round;stroke-miterlimit:10;" d="
						M367.077,214.039c-3.982-14.059-2.667-31.01,2.247-44.771c1.513-4.237,3.607-8.542,7.35-11.039
						c3.744-2.496,9.517-2.408,12.137,1.251c2.22,3.101,1.472,7.402,0.123,10.969C383.679,184.351,370.188,196.595,367.077,214.039z
						"/>
					<path style="fill:none;stroke:#2E2854;stroke-linecap:round;stroke-linejoin:round;stroke-miterlimit:10;" d="M376.878,169.884
						c-5.211,13.179-9.033,30.003-9.801,44.154"/>
				</g>
				<g>
					<path style="fill:none;stroke:#2E2854;stroke-linecap:round;stroke-linejoin:round;stroke-miterlimit:10;" d="M346.859,230.585
						c13.68,17.133,23.698,37.171,29.212,58.39"/>
					<g>
						<path style="opacity:0.15;fill:#2E2854;" d="M358.696,214.646c-5.072-5.326-13.652-6.931-20.307-3.798
							c-6.656,3.132-10.888,10.766-10.016,18.07c0.871,7.304,6.778,13.729,13.984,15.208c7.206,1.479,15.167-2.099,18.845-8.468
							C364.88,229.286,364.196,220.421,358.696,214.646z"/>
						<path style="fill:#F7A145;" d="M356.455,211.444c-5.072-5.326-13.652-6.931-20.307-3.798
							c-6.656,3.132-10.888,10.766-10.016,18.07c0.871,7.304,6.778,13.729,13.984,15.208c7.206,1.479,15.167-2.099,18.844-8.468
							C362.64,226.084,361.956,217.219,356.455,211.444z"/>
						<path style="fill:#FF8330;" d="M352.369,213.519c-4.198-3.626-10.746-4.21-15.52-1.385c-4.772,2.824-7.412,8.847-6.255,14.27
							c1.158,5.423,6.025,9.844,11.536,10.474c5.509,0.629,11.251-2.578,13.602-7.6
							C358.083,224.254,357.065,217.576,352.369,213.519z"/>
						<g>
							<path style="fill:#F7A145;" d="M344.822,222.518c0.281,0.082,0.561,0.171,0.843,0.268c0.28,0.096,0.551,0.208,0.811,0.333
								c0.26,0.126,0.503,0.271,0.728,0.434c0.226,0.163,0.421,0.357,0.588,0.579c0.166,0.222,0.297,0.477,0.39,0.763
								c0.094,0.286,0.14,0.617,0.14,0.992c0,0.556-0.093,1.077-0.28,1.566s-0.463,0.921-0.825,1.299
								c-0.363,0.377-0.807,0.684-1.334,0.921c-0.526,0.237-1.128,0.381-1.807,0.434l-0.106,1.088
								c-0.011,0.163-0.083,0.311-0.216,0.443c-0.131,0.132-0.298,0.198-0.504,0.198h-1l0.176-1.808
								c-0.673-0.111-1.315-0.306-1.927-0.583c-0.611-0.278-1.127-0.613-1.548-1.005l0.841-1.22c0.071-0.099,0.166-0.183,0.286-0.25
								c0.12-0.067,0.247-0.101,0.381-0.101c0.141,0,0.284,0.036,0.43,0.109c0.147,0.074,0.306,0.161,0.478,0.264
								c0.173,0.102,0.363,0.208,0.571,0.316c0.207,0.109,0.443,0.198,0.706,0.268l0.326-3.307c-0.421-0.117-0.841-0.255-1.26-0.413
								c-0.418-0.158-0.794-0.371-1.128-0.64c-0.333-0.269-0.604-0.611-0.811-1.027c-0.207-0.415-0.311-0.935-0.311-1.562
								c0-0.462,0.093-0.913,0.281-1.351c0.187-0.439,0.46-0.834,0.82-1.185c0.36-0.351,0.803-0.639,1.33-0.865
								c0.526-0.225,1.128-0.355,1.808-0.39l0.096-0.974c0.011-0.164,0.083-0.312,0.216-0.443c0.131-0.131,0.299-0.197,0.504-0.197
								h1l-0.166,1.719c0.631,0.117,1.174,0.307,1.627,0.571c0.454,0.263,0.838,0.544,1.154,0.842l-0.667,0.974
								c-0.099,0.146-0.2,0.253-0.303,0.321c-0.101,0.067-0.223,0.101-0.364,0.101c-0.087,0-0.191-0.021-0.311-0.066
								c-0.12-0.044-0.25-0.096-0.39-0.158c-0.14-0.061-0.291-0.126-0.453-0.193c-0.16-0.068-0.331-0.128-0.513-0.18
								L344.822,222.518z M343.479,219.333c-0.27,0.041-0.496,0.103-0.68,0.184c-0.184,0.082-0.334,0.178-0.448,0.29
								c-0.113,0.111-0.197,0.236-0.25,0.373c-0.053,0.138-0.079,0.282-0.079,0.434c0,0.346,0.111,0.625,0.333,0.838
								c0.223,0.214,0.51,0.393,0.861,0.54L343.479,219.333z M344.295,227.879c0.965-0.158,1.448-0.688,1.448-1.588
								c0-0.339-0.107-0.607-0.32-0.803c-0.214-0.196-0.496-0.361-0.847-0.495L344.295,227.879z"/>
						</g>
						<path style="opacity:0.15;fill:#2E2854;" d="M358.961,232.455c2.036-3.527,2.729-7.818,2.015-11.926
							c-0.415,7.187-4.026,15.44-12.654,17.921c-8.862,2.548-14.95-1.183-18.366-3.876c2.561,3.176,6.159,5.527,10.161,6.349
							C347.322,242.402,355.284,238.824,358.961,232.455z"/>
						<path style="fill:#F5B878;" d="M336.149,207.646c-4.658,2.192-8.121,6.591-9.486,11.536
							c1.496-3.533,4.623-8.987,12.307-11.127c5.326-1.484,10.971-0.437,16.04,2.064C349.859,205.88,342.21,204.793,336.149,207.646
							z"/>
					</g>
				</g>
				<g>
					<path style="fill:none;stroke:#2E2854;stroke-linecap:round;stroke-linejoin:round;stroke-miterlimit:10;" d="M374.266,256.25
						c6.718-21.129,19.841-40.2,37.248-53.944"/>
					<g>
						<path style="opacity:0.15;fill:#2E2854;" d="M424.778,194.303c-4.615-5.727-13.033-8.035-19.923-5.463
							c-6.892,2.572-11.74,9.829-11.475,17.181c0.264,7.351,5.621,14.242,12.68,16.311c7.059,2.069,15.288-0.839,19.479-6.882
							C429.732,209.404,429.782,200.513,424.778,194.303z"/>
						<path style="fill:#F7A145;" d="M423.893,190.02c-4.615-5.727-13.033-8.035-19.924-5.463
							c-6.892,2.572-11.74,9.829-11.474,17.181c0.264,7.351,5.621,14.242,12.68,16.311c7.059,2.069,15.289-0.839,19.48-6.882
							C428.847,205.121,428.898,196.23,423.893,190.02z"/>
						<path style="fill:#FF8330;" d="M419.649,191.751c-3.884-3.96-10.362-5.084-15.352-2.663c-4.989,2.42-8.117,8.204-7.412,13.705
							c0.706,5.501,5.191,10.308,10.631,11.391c5.439,1.082,11.425-1.64,14.183-6.451
							C424.457,202.921,423.995,196.182,419.649,191.751z"/>
						<g>
							<path style="fill:#F7A145;" d="M411.384,200.095c0.274,0.105,0.545,0.217,0.817,0.336c0.271,0.119,0.532,0.253,0.781,0.399
								c0.249,0.147,0.479,0.311,0.69,0.493c0.211,0.182,0.39,0.391,0.538,0.626c0.147,0.235,0.257,0.5,0.326,0.793
								c0.07,0.293,0.089,0.626,0.057,1c-0.046,0.554-0.181,1.066-0.408,1.537c-0.227,0.471-0.537,0.88-0.93,1.226
								c-0.393,0.346-0.861,0.615-1.405,0.808c-0.543,0.193-1.156,0.287-1.836,0.283l-0.195,1.076
								c-0.025,0.162-0.108,0.303-0.251,0.423c-0.142,0.121-0.314,0.173-0.519,0.156l-0.996-0.083l0.324-1.787
								c-0.661-0.166-1.285-0.413-1.872-0.741c-0.586-0.327-1.072-0.704-1.46-1.129l0.939-1.146c0.079-0.093,0.18-0.169,0.305-0.225
								c0.125-0.057,0.254-0.08,0.388-0.069c0.141,0.012,0.28,0.06,0.419,0.144c0.141,0.085,0.291,0.186,0.455,0.302
								c0.164,0.116,0.344,0.237,0.543,0.362c0.197,0.125,0.425,0.234,0.681,0.325l0.598-3.269c-0.41-0.151-0.817-0.324-1.221-0.515
								c-0.404-0.192-0.761-0.436-1.071-0.732c-0.309-0.296-0.552-0.659-0.724-1.09c-0.172-0.43-0.233-0.958-0.181-1.582
								c0.038-0.46,0.168-0.902,0.392-1.323c0.223-0.422,0.527-0.793,0.915-1.113c0.388-0.32,0.853-0.571,1.396-0.752
								c0.542-0.181,1.154-0.26,1.834-0.239l0.176-0.963c0.025-0.163,0.108-0.304,0.251-0.424c0.142-0.12,0.314-0.172,0.519-0.155
								l0.996,0.083l-0.307,1.7c0.619,0.169,1.145,0.403,1.574,0.703c0.431,0.299,0.79,0.611,1.08,0.934l-0.745,0.916
								c-0.11,0.138-0.22,0.236-0.328,0.294c-0.107,0.059-0.23,0.082-0.371,0.07c-0.087-0.007-0.189-0.037-0.305-0.091
								c-0.116-0.053-0.241-0.117-0.376-0.189c-0.134-0.073-0.28-0.149-0.435-0.23c-0.154-0.081-0.32-0.155-0.496-0.222
								L411.384,200.095z M410.31,196.81c-0.272,0.019-0.502,0.061-0.693,0.127c-0.19,0.067-0.348,0.15-0.471,0.252
								c-0.122,0.102-0.216,0.218-0.28,0.351c-0.064,0.133-0.102,0.274-0.114,0.426c-0.029,0.344,0.059,0.632,0.262,0.863
								c0.204,0.231,0.476,0.434,0.814,0.609L410.31,196.81z M410.416,205.394c0.975-0.077,1.5-0.566,1.574-1.463
								c0.028-0.338-0.057-0.614-0.252-0.827c-0.197-0.213-0.464-0.4-0.803-0.564L410.416,205.394z"/>
						</g>
						<path style="opacity:0.15;fill:#2E2854;" d="M424.655,211.167c2.321-3.347,3.366-7.566,2.993-11.719
							c-1.007,7.128-5.288,15.055-14.091,16.814c-9.043,1.807-14.801-2.414-17.983-5.38c2.29,3.377,5.681,6.017,9.602,7.166
							C412.234,220.118,420.464,217.21,424.655,211.167z"/>
						<path style="fill:#F5B878;" d="M403.97,184.557c-4.823,1.8-8.638,5.897-10.407,10.713c1.783-3.397,5.35-8.574,13.184-10.072
							c5.43-1.038,10.97,0.471,15.815,3.382C417.779,183.931,410.246,182.215,403.97,184.557z"/>
					</g>
				</g>
				<g>
					<path style="fill:none;stroke:#2E2854;stroke-linecap:round;stroke-linejoin:round;stroke-miterlimit:10;" d="M338.969,162.623
						c18.216,16.699,26.72,41.484,31.335,65.762c9.237,48.595,5.621,98.601,1.971,147.932"/>
					<g>
						<path style="opacity:0.15;fill:#2E2854;" d="M352.887,146.824c-5.667-4.688-14.377-5.264-20.614-1.365
							c-6.238,3.899-9.535,11.98-7.804,19.13c1.73,7.149,8.358,12.828,15.688,13.443c7.33,0.615,14.811-3.882,17.708-10.641
							C360.763,160.627,359.033,151.906,352.887,146.824z"/>
						<path style="fill:#F7A145;" d="M350.237,143.461c-5.667-4.688-14.377-5.264-20.614-1.365
							c-6.238,3.899-9.535,11.98-7.804,19.13c1.73,7.15,8.358,12.828,15.688,13.443c7.33,0.615,14.811-3.882,17.708-10.642
							C358.113,157.265,356.383,148.544,350.237,143.461z"/>
						<path style="fill:#FF8330;" d="M346.425,146.006c-4.598-3.102-11.17-2.907-15.575,0.464
							c-4.404,3.369-6.311,9.663-4.519,14.911c1.793,5.248,7.149,9.061,12.696,9.033c5.545-0.029,10.866-3.894,12.605-9.159
							C353.371,155.988,351.569,149.477,346.425,146.006z"/>
						<g>
							<path style="fill:#F7A145;" d="M339.997,155.835c0.289,0.048,0.578,0.104,0.868,0.166c0.289,0.063,0.572,0.141,0.845,0.235
								c0.273,0.094,0.531,0.209,0.775,0.345c0.243,0.136,0.461,0.305,0.653,0.505c0.191,0.201,0.351,0.438,0.478,0.712
								c0.128,0.273,0.212,0.596,0.257,0.968c0.066,0.552,0.036,1.081-0.092,1.588c-0.128,0.507-0.35,0.969-0.666,1.387
								c-0.316,0.417-0.72,0.775-1.215,1.073c-0.494,0.298-1.075,0.512-1.742,0.645l0.024,1.093
								c0.008,0.164-0.045,0.319-0.162,0.465c-0.115,0.147-0.273,0.232-0.477,0.256l-0.993,0.118l-0.04-1.816
								c-0.681-0.03-1.342-0.148-1.982-0.351c-0.64-0.203-1.191-0.475-1.656-0.814l0.691-1.311c0.059-0.107,0.143-0.201,0.254-0.282
								c0.111-0.081,0.233-0.129,0.367-0.145c0.14-0.017,0.286,0.002,0.44,0.058c0.155,0.056,0.323,0.124,0.506,0.205
								c0.184,0.081,0.385,0.163,0.605,0.246c0.219,0.083,0.463,0.144,0.732,0.182l-0.069-3.323c-0.432-0.066-0.865-0.153-1.3-0.26
								s-0.832-0.275-1.196-0.502c-0.362-0.228-0.672-0.535-0.927-0.923c-0.255-0.387-0.42-0.892-0.494-1.514
								c-0.055-0.459-0.016-0.917,0.119-1.375c0.134-0.458,0.358-0.883,0.674-1.273c0.316-0.392,0.721-0.73,1.218-1.016
								c0.495-0.286,1.078-0.486,1.749-0.601l-0.02-0.979c-0.008-0.164,0.045-0.32,0.162-0.466c0.115-0.146,0.273-0.231,0.477-0.255
								l0.993-0.118l0.039,1.727c0.641,0.041,1.202,0.166,1.683,0.374c0.482,0.207,0.897,0.441,1.246,0.699l-0.547,1.046
								c-0.08,0.157-0.168,0.275-0.263,0.354c-0.093,0.079-0.209,0.126-0.35,0.143c-0.087,0.01-0.193,0.001-0.317-0.028
								c-0.124-0.029-0.26-0.066-0.406-0.111c-0.146-0.044-0.304-0.09-0.472-0.138c-0.167-0.048-0.344-0.088-0.53-0.118
								L339.997,155.835z M338.287,152.831c-0.263,0.073-0.48,0.161-0.653,0.264c-0.173,0.103-0.311,0.217-0.411,0.341
								c-0.099,0.124-0.168,0.257-0.204,0.4c-0.036,0.143-0.045,0.289-0.027,0.44c0.041,0.343,0.185,0.607,0.43,0.793
								c0.247,0.186,0.553,0.33,0.919,0.434L338.287,152.831z M340.109,161.221c0.94-0.271,1.356-0.854,1.25-1.748
								c-0.04-0.337-0.178-0.59-0.413-0.76c-0.236-0.169-0.535-0.299-0.9-0.392L340.109,161.221z"/>
						</g>
						<path style="opacity:0.15;fill:#2E2854;" d="M355.215,164.027c1.604-3.744,1.784-8.086,0.587-12.081
							c0.44,7.185-2.168,15.809-10.441,19.295c-8.498,3.58-14.984,0.597-18.696-1.672c2.919,2.851,6.77,4.758,10.842,5.1
							C344.837,175.283,352.318,170.787,355.215,164.027z"/>
						<path style="fill:#F5B878;" d="M329.623,142.096c-4.366,2.729-7.283,7.507-8.052,12.579
							c1.067-3.686,3.525-9.471,10.901-12.507c5.112-2.104,10.842-1.734,16.172,0.149
							C343.028,138.718,335.303,138.544,329.623,142.096z"/>
					</g>
				</g>
				<g>
					<path style="fill:none;stroke:#2E2854;stroke-linecap:round;stroke-linejoin:round;stroke-miterlimit:10;" d="M375.368,328.385
						c4.477-18.501,16.239-35.168,32.236-45.502"/>
					<g>
						<path style="opacity:0.15;fill:#2E2854;" d="M422.256,271.169c-5.667-4.688-14.377-5.264-20.614-1.365
							c-6.238,3.899-9.535,11.98-7.804,19.13c1.73,7.149,8.358,12.828,15.688,13.443c7.33,0.615,14.811-3.882,17.708-10.641
							C430.132,284.973,428.402,276.252,422.256,271.169z"/>
						<path style="fill:#F7A145;" d="M420.793,269.223c-5.667-4.688-14.377-5.264-20.614-1.365
							c-6.238,3.899-9.535,11.98-7.804,19.13c1.73,7.149,8.358,12.828,15.688,13.443c7.33,0.615,14.811-3.882,17.708-10.641
							C428.669,283.027,426.94,274.306,420.793,269.223z"/>
						<path style="fill:#FF8330;" d="M416.982,271.768c-4.598-3.103-11.17-2.907-15.575,0.464
							c-4.404,3.369-6.311,9.663-4.519,14.911c1.793,5.248,7.149,9.061,12.696,9.033c5.545-0.029,10.866-3.893,12.605-9.159
							C423.928,281.75,422.126,275.239,416.982,271.768z"/>
						<g>
							<path style="fill:#F7A145;" d="M410.554,281.598c0.289,0.048,0.578,0.104,0.868,0.166c0.289,0.063,0.572,0.141,0.845,0.235
								c0.273,0.094,0.531,0.209,0.775,0.345c0.243,0.136,0.461,0.305,0.653,0.505c0.191,0.201,0.352,0.438,0.478,0.712
								c0.128,0.273,0.212,0.596,0.257,0.968c0.066,0.552,0.035,1.081-0.092,1.588c-0.128,0.507-0.35,0.969-0.666,1.387
								c-0.315,0.417-0.72,0.775-1.215,1.073c-0.494,0.298-1.075,0.512-1.742,0.645l0.024,1.093
								c0.008,0.164-0.045,0.319-0.162,0.465c-0.115,0.147-0.273,0.232-0.477,0.256l-0.993,0.118l-0.04-1.816
								c-0.681-0.03-1.342-0.148-1.982-0.351c-0.64-0.203-1.191-0.475-1.656-0.814l0.691-1.311c0.059-0.107,0.143-0.201,0.254-0.282
								s0.233-0.129,0.367-0.145c0.14-0.017,0.286,0.003,0.44,0.058c0.155,0.056,0.323,0.124,0.506,0.205
								c0.184,0.081,0.385,0.163,0.605,0.246c0.218,0.083,0.463,0.144,0.732,0.182l-0.069-3.323
								c-0.432-0.066-0.865-0.154-1.299-0.261c-0.434-0.107-0.833-0.275-1.196-0.502c-0.362-0.228-0.672-0.535-0.927-0.923
								c-0.255-0.387-0.42-0.892-0.494-1.514c-0.055-0.459-0.016-0.917,0.119-1.375c0.134-0.458,0.358-0.883,0.673-1.273
								c0.316-0.392,0.721-0.73,1.218-1.016c0.495-0.286,1.078-0.486,1.749-0.601l-0.021-0.978c-0.008-0.164,0.045-0.32,0.162-0.466
								c0.115-0.146,0.273-0.231,0.477-0.255l0.993-0.118l0.039,1.727c0.641,0.041,1.202,0.166,1.683,0.374
								c0.482,0.207,0.897,0.441,1.246,0.699l-0.547,1.046c-0.08,0.157-0.168,0.275-0.263,0.354
								c-0.093,0.079-0.209,0.126-0.35,0.143c-0.086,0.01-0.192,0.001-0.317-0.028c-0.124-0.029-0.259-0.066-0.406-0.11
								c-0.146-0.044-0.304-0.09-0.472-0.138c-0.167-0.048-0.344-0.088-0.53-0.118L410.554,281.598z M408.844,278.594
								c-0.263,0.073-0.48,0.161-0.653,0.263c-0.173,0.103-0.311,0.217-0.411,0.341c-0.099,0.124-0.168,0.257-0.204,0.4
								c-0.036,0.143-0.044,0.289-0.026,0.44c0.041,0.343,0.185,0.607,0.43,0.793c0.246,0.186,0.553,0.33,0.919,0.434
								L408.844,278.594z M410.666,286.983c0.94-0.271,1.356-0.854,1.25-1.748c-0.04-0.337-0.178-0.59-0.413-0.76
								c-0.236-0.169-0.535-0.299-0.9-0.392L410.666,286.983z"/>
						</g>
						<path style="opacity:0.15;fill:#2E2854;" d="M425.772,289.789c1.604-3.744,1.784-8.086,0.587-12.081
							c0.44,7.185-2.168,15.809-10.441,19.294c-8.498,3.581-14.984,0.597-18.696-1.672c2.919,2.85,6.77,4.758,10.842,5.099
							C415.394,301.045,422.875,296.549,425.772,289.789z"/>
						<path style="fill:#F5B878;" d="M400.18,267.858c-4.366,2.729-7.283,7.507-8.052,12.579c1.067-3.685,3.525-9.471,10.901-12.507
							c5.112-2.104,10.842-1.734,16.172,0.149C413.585,264.48,405.86,264.307,400.18,267.858z"/>
					</g>
				</g>
			</g>
			<g>
				<path style="fill:#F7A145;" d="M381.769,134.644c-2.509-1.993-6.58-1.583-8.644,0.868c-2.063,2.452-1.77,6.533,0.623,8.665
					c2.392,2.132,6.481,1.954,8.679-0.377C384.626,141.47,384.832,137.075,381.769,134.644z"/>
				<path style="fill:#F7A145;" d="M319.744,192.282c-1.766-1.288-4.54-0.866-5.843,0.889c-1.302,1.755-0.904,4.533,0.84,5.85
					c1.744,1.319,4.525,0.943,5.858-0.789C321.932,196.499,321.625,193.653,319.744,192.282z"/>
				<path style="fill:#F7A145;" d="M426.773,254.571c-1.01-0.736-2.595-0.495-3.34,0.508c-0.744,1.003-0.516,2.591,0.48,3.343
					c0.997,0.754,2.586,0.539,3.348-0.451C428.023,256.981,427.847,255.355,426.773,254.571z"/>
				<path style="fill:#F7A145;" d="M316.845,301.848c-1.01-0.736-2.595-0.495-3.34,0.508c-0.744,1.003-0.516,2.59,0.48,3.344
					c0.997,0.754,2.586,0.539,3.348-0.451C318.095,304.258,317.919,302.632,316.845,301.848z"/>
				<path style="fill:#F7A145;" d="M312.649,177.013c-1.01-0.736-2.595-0.495-3.34,0.508c-0.744,1.003-0.516,2.59,0.48,3.344
					c0.997,0.754,2.586,0.539,3.348-0.451C313.899,179.423,313.724,177.797,312.649,177.013z"/>
				<path style="fill:#F7A145;" d="M350.056,256.697c-1.01-0.736-2.595-0.495-3.34,0.508c-0.744,1.003-0.516,2.59,0.48,3.344
					c0.997,0.754,2.586,0.539,3.348-0.451C351.306,259.107,351.131,257.481,350.056,256.697z"/>
				<path style="fill:#F7A145;" d="M436.831,190.024c-1.01-0.736-2.595-0.495-3.34,0.508c-0.744,1.003-0.516,2.59,0.48,3.344
					c0.997,0.754,2.586,0.539,3.348-0.451C438.081,192.434,437.906,190.808,436.831,190.024z"/>
				<path style="fill:#F7A145;" d="M449.792,289.914c-1.766-1.289-4.54-0.866-5.843,0.889c-1.302,1.755-0.904,4.533,0.84,5.85
					c1.744,1.318,4.524,0.943,5.858-0.789C451.979,294.131,451.673,291.286,449.792,289.914z"/>
			</g>
		</g>
		<g style="clip-path:url(#SVGID_00000045593308174663946560000016346076772996306316_);">
			<path style="opacity:0.15;fill:#2E2854;" d="M394.798,325.672c-5.976-13.952-15.264-26.466-26.849-36.269
				c0.646-1.231,1.244-2.487,1.791-3.764c0.491-1.149-0.042-2.478-1.189-2.969c-1.15-0.49-2.478,0.041-2.969,1.189
				c-0.055,0.128-0.116,0.254-0.172,0.381c-3.757-1.911-8.311-2.262-12.285-0.83c-1.44,0.519-2.788,1.271-4.004,2.198
				c-2.191-1.645-4.667-2.911-7.282-3.737c0.127-0.159,0.264-0.309,0.383-0.473c0.765-1.053,0.989-1.6,1.101-2.155
				c0.111-0.556,0.011-1.186-0.393-1.581c-0.64-0.625-1.673-0.41-2.5-0.01c0.726-0.826,0.986-1.361,1.116-1.921
				c0.161-0.683,0.082-1.46-0.374-1.993c-0.721-0.843-2.053-0.773-3.106-0.415c-0.249,0.085-0.484,0.194-0.722,0.3
				c0.035-0.039,0.07-0.078,0.105-0.116c1.545-1.723,1.459-3.615,0.63-4.586c-0.459-0.539-1.22-0.724-1.928-0.649
				c2.38-2.446,4.687-4.963,6.903-7.558c0.491-0.575,0.987-1.172,1.222-1.89c0.234-0.718,0.143-1.594-0.416-2.102
				c-1.016-0.924-2.616-0.097-3.697,0.751c-4.169,3.263-8.156,6.759-11.945,10.456c0.746-1.235,1.492-2.471,2.239-3.706
				c0.421-0.699,0.857-1.446,0.843-2.263c-0.015-0.816-0.685-1.675-1.494-1.569c-0.465,0.06-0.835,0.406-1.171,0.733
				c-4.433,4.335-8.866,8.669-13.321,13.022c-1.851,1.808-3.707,3.62-5.567,5.436c-0.785-11.452-1.917-22.898-3.409-34.326
				c1.641-5.242,3.283-10.485,4.924-15.727c-13.719-6.443-29.52-7.333-43.966-3.251c1.081,3.504,1.951,7.184,2.828,11.011
				c-0.355-0.515-0.727-1.021-1.137-1.506c-2.583-3.051-7.136-5.928-12.171-4.845c-2.976,0.639-5.498,2.492-7.542,5.525
				c-4.168-13.696-11.462-26.156-21.18-36.352c-2.178-2.285-4.476-4.455-6.878-6.502l0,0c-3.445-2.935-7.111-5.608-10.945-8.015
				c-7.058-4.431-14.702-7.928-22.671-10.357c0.379-3.401,0.677-6.811,0.883-10.226c6.895-0.065,13.744-1.905,19.446-5.742
				c4.933-3.32,8.823-7.965,11.742-13.174c3.335,2.682,8.482,2.7,12.226,0.503c4.048-2.377,6.547-6.836,7.521-11.428
				c0.858-4.048,0.568-8.577-1.929-11.877c-0.527-0.697-1.175-1.305-1.894-1.817c1.107-1.302,2.247-2.614,3.347-3.957
				c2.27-2.769,4.404-5.725,5.593-9.099c1.191-3.376,1.347-7.248-0.265-10.443c-1.612-3.195-5.222-5.477-8.755-4.901
				c1.332-6.666,1.221-12.776-0.463-18.496c-1.683-5.719-4.999-11.029-9.737-14.647c-5.644-4.309-12.93-5.985-20.029-6.129
				c-10.324-0.21-21.363,3.096-27.6,11.327c-0.821-1.865-0.815-2.793-0.822-3.686c-0.008-0.894-0.046-1.83-0.494-2.601
				c-0.449-0.772-1.444-1.302-2.259-0.935c-0.617,0.278-0.94,0.956-1.148,1.599c-0.5,1.545-0.633,3.207-0.382,4.812
				c-5.13-4.353-12.664-4.504-18.156-1.446c-5.492,3.056-9.137,8.699-11.253,14.618c-3.061,8.565-3.273,18.109-0.665,26.818
				c-0.75,0.094-1.496,0.217-2.231,0.401c-4.812,1.202-9.144,4.4-11.489,8.771c-2.345,4.371-2.587,9.868-0.409,14.326
				c2.276,4.656,7.069,7.908,12.205,8.602c0.814,0.11,1.634,0.152,2.453,0.141c0.441,1.783,1.246,3.476,2.388,4.915
				c2.195,2.764,5.575,4.554,9.096,4.818c0.394,0.03,0.8,0.032,1.204,0.005c1.762,3.43,3.997,6.602,6.793,9.245
				c3.328,3.146,7.367,5.464,11.681,7.032c-0.757,2.994-1.405,6.014-1.946,9.055c-7.818-1.749-15.791-2.659-23.772-2.323
				c-2.067,0.087-4.136,0.267-6.194,0.538c-2.77,0.365-5.518,0.901-8.202,1.643l0,0c-4.195,1.161-8.236,2.812-11.972,5.049
				c-8.355,5.003-14.793,12.671-20.205,20.766c-9.65,14.431-16.553,30.69-20.23,47.656c2.999,1.471,6.015,2.851,9.047,4.149
				c-2.254,12.298-3.406,24.915,1.066,36.405c3.37,8.659,9.741,15.893,17.237,21.424c-1.167,13.255-2.341,26.585-3.53,40.043
				c2.804,0.395,5.614,0.751,8.427,1.081c-3.855,51.834-7.963,107.064-11.801,158.679l126.629,4.682
				c4.293-56.075,5.511-112.385,3.659-168.594l0,0v0c-0.201-6.102-0.451-12.203-0.725-18.303c1.237,2.477,2.66,4.859,4.325,7.102
				c7.759,10.454,21.467,17.3,34.029,13.884c6.527-1.774,12.09-6.03,17.031-10.648c4.932-4.611,9.808-9.083,14.672-13.625
				c3.145-0.604,6.243-1.38,9.261-2.36c0.013-2.138-0.006-4.276-0.02-6.413c7.106-6.886,14.249-14.221,21.563-22.639
				c0.338-0.113,0.67-0.24,1.014-0.336c3.733-1.045,8.008-0.838,11.375,0.91c-0.725,1.276-1.276,2.648-1.601,4.081
				c-0.942,4.151-0.011,8.664,2.804,12.037c-1.033,0.668-1.345,2.043-0.692,3.092c0.421,0.677,1.143,1.053,1.887,1.065
				c0.419,0.006,0.845-0.103,1.229-0.342c0.775-0.483,1.533-0.994,2.283-1.517c15.857,18.147,24.937,42.14,24.899,66.253
				c0,0,26.751,2.597,26.15,1.728C404.132,359.526,401.652,341.675,394.798,325.672z M256.909,305.004
				c-0.939-2.334-1.784-4.7-2.565-7.092c1.63-0.075,3.302-0.548,4.843-1.407c-0.675,3.026-1.349,6.062-2.024,9.108
				C257.08,305.41,256.991,305.206,256.909,305.004z M257.768,235.363c2.536-0.542,5.587,0.768,7.768,3.345
				c2.2,2.601,3.425,6.035,4.608,9.358c-3.067,13.45-6.133,26.919-9.191,40.546c-0.945,1.37-2.075,2.716-3.487,3.652
				c-1.454,0.964-3.153,1.335-4.534,1.038c-0.608-2.114-1.172-4.251-1.701-6.41c1.868-2.125,3.241-4.71,4.171-7.398
				c1.324-3.828,1.85-7.879,2.367-11.898c0.278-2.163,0.446-4.67-1.112-6.197c-1.454-1.422-3.771-1.338-5.789-1.079
				c-1.233,0.159-2.462,0.35-3.685,0.57c0.17-2.013,0.414-3.977,0.724-5.896c1.647-0.155,3.293-0.328,4.935-0.535
				c-0.368-3.898-0.984-7.737-1.833-11.499C252.324,239.619,254.469,236.071,257.768,235.363z"/>
			<g>
				<path style="fill:#654687;" d="M150.149,140.754c-0.967,1.374-2.862,1.721-4.54,1.62c-3.525-0.21-6.932-1.948-9.168-4.678
					c-2.238-2.73-3.274-6.413-2.788-9.909c0,0-0.055-23.458,0.215-24.581c-3.65-9.332-3.886-19.956-0.659-29.442
					c2.024-5.95,5.583-11.649,11.028-14.789c5.445-3.141,12.98-3.106,18.176,1.168c-0.275-1.601-0.169-3.265,0.308-4.818
					c0.198-0.646,0.511-1.329,1.123-1.617c0.809-0.38,1.812,0.135,2.273,0.9c0.46,0.764,0.512,1.699,0.534,2.593
					c0.021,0.893,0.029,1.821,0.878,3.673c6.111-8.325,17.097-11.8,27.423-11.748c7.1,0.035,14.411,1.6,20.121,5.822
					c4.793,3.545,8.189,8.804,9.96,14.496c1.771,5.693,1.976,11.801,0.746,18.487c3.523-0.63,7.168,1.596,8.829,4.767
					c1.66,3.17,1.563,7.044,0.424,10.438c-1.138,3.392-3.226,6.381-5.453,9.184c-2.226,2.802-4.626,5.483-6.551,8.188
					c-4.946,7.839-11.823,14.704-20.373,18.283c-8.551,3.578-18.875,3.504-26.711-1.447L150.149,140.754z"/>
				<g>
					<path style="fill:#9E4950;" d="M166.249,155.391c-1.67,6.386-2.852,12.899-3.531,19.464c0,0,15.748,3.195,15.589,3.268
						c0.976-7.365,1.548-14.782,1.71-22.208L166.249,155.391z"/>
					<path style="opacity:0.15;fill:#2E2854;" d="M164.69,162.182c3.706,1.182,9.315,2.583,14.925,2.527
						c0.192-2.929,0.338-5.861,0.403-8.795l-13.769-0.524C165.662,157.638,165.157,159.906,164.69,162.182z"/>
				</g>
				<g>
					<path style="fill:#9E4950;" d="M145.206,102.614c-4.445-2.201-9.681-2.866-14.476-1.59c-4.793,1.276-9.076,4.54-11.354,8.946
						c-2.278,4.406-2.436,9.907-0.189,14.33c2.347,4.621,7.189,7.799,12.335,8.414c5.146,0.617,10.473-1.236,14.342-4.684
						L145.206,102.614z"/>
					<g>
						<path style="fill:none;stroke:#2E2854;stroke-linecap:round;stroke-linejoin:round;stroke-miterlimit:10;" d="
							M124.945,115.422c3.031-3.255,7.935-4.627,12.215-3.416"/>
						<path style="fill:none;stroke:#2E2854;stroke-linecap:round;stroke-linejoin:round;stroke-miterlimit:10;" d="
							M133.581,120.927c-1.674-2.68-2.68-5.761-2.911-8.89"/>
					</g>
				</g>
				<path style="fill:#9E4950;" d="M217.218,115.959c3.317-2.473,8.45-1.105,10.996,2.156c2.547,3.262,2.906,7.786,2.11,11.846
					c-0.904,4.606-3.334,9.103-7.345,11.542c-4.012,2.438-9.709,2.318-13.024-1.007L217.218,115.959z"/>
				<g>
					<path style="fill:#9E4950;" d="M218.47,110.54c-0.767,8.238-1.938,16.521-4.832,24.272c-2.893,7.751-7.638,15.003-14.43,19.728
						c-8.456,5.88-19.554,7.338-29.583,4.998c-5.841-1.362-11.456-3.984-15.877-8.038c-4.45-4.08-7.55-9.474-9.59-15.157
						c-3.857-10.745-4.023-22.778-1.012-34.234c9.011-2.781,16.589-9.864,19.707-18.27c2.661,7.103,8.803,12.805,16.083,14.933
						c7.281,2.127,15.526,0.629,22.363-3.253c0.052,3.776,1.697,7.505,4.45,10.09C208.502,108.196,212.328,109.602,218.47,110.54z"
						/>
					<g>
						<path style="fill:#B35B62;" d="M211.479,139.749c-2.522-1.217-5.415-1.667-8.162-1.109c-5.03,1.02-9.226,5.36-10.024,10.428
							c-0.433,2.744,0.163,5.595,1.514,8.018c1.526-0.733,3.003-1.573,4.401-2.546C204.529,150.839,208.577,145.578,211.479,139.749
							z"/>
						<path style="fill:#B35B62;" d="M144.158,136.343c1.937,5.396,4.844,10.517,8.94,14.514c3.028-0.102,6.028-1.261,8.192-3.389
							c3.657-3.6,6.197-10.43,2.735-15.696c-2.819-4.287-8.347-6.623-13.377-5.605c-3.213,0.652-6.081,2.662-7.946,5.349
							C143.111,133.148,143.59,134.761,144.158,136.343z"/>
					</g>
					<g>
						<path style="fill:#2E2854;" d="M164.373,109.489c0.121,0.791,0.24,1.608,0.035,2.381c-0.205,0.774-0.825,1.497-1.623,1.558
							c-0.74,0.058-1.428-0.468-1.785-1.119c-0.359-0.65-0.455-1.409-0.545-2.147c-0.093-0.759-0.183-1.546,0.042-2.278
							c0.226-0.731,0.86-1.395,1.625-1.401C162.889,106.479,164.032,107.266,164.373,109.489z"/>
						<path style="fill:#2E2854;" d="M209.795,119.337c-0.061,0.798-0.127,1.622-0.502,2.329c-0.374,0.707-1.14,1.271-1.932,1.152
							c-0.735-0.11-1.286-0.779-1.488-1.493c-0.203-0.716-0.125-1.476-0.046-2.215c0.08-0.76,0.17-1.548,0.554-2.21
							c0.386-0.661,1.152-1.164,1.899-0.998C209.027,116.069,209.965,117.095,209.795,119.337z"/>
						<path style="fill:none;stroke:#2E2854;stroke-linecap:round;stroke-linejoin:round;stroke-miterlimit:10;" d="M189.18,114.131
							c1.025,3.403,1.601,6.94,1.708,10.493l-4.836,0.155"/>
						<path style="fill:none;stroke:#2E2854;stroke-linecap:round;stroke-linejoin:round;stroke-miterlimit:10;" d="M168.161,124.07
							c5.038,6.314,13.398,9.812,21.432,8.969"/>
					</g>
				</g>
			</g>
			<g>
				<path style="fill:#5767BF;" d="M225.423,506.325c3.434-56.134,3.789-112.457,1.077-168.63l-118.105,2.16
					c-3.144,53.288-6.515,110.438-9.658,163.727L225.423,506.325z"/>
				<path style="opacity:0.15;fill:#2E2854;" d="M180.16,505.345l-1.845-115.614c-1.828,0.598-4.028,1.022-6.51,1.698
					c-1.069,34.838-3.496,78.799-4.564,113.636L180.16,505.345z"/>
				<g>
					<path style="fill:none;stroke:#2E2854;stroke-linecap:round;stroke-linejoin:round;stroke-miterlimit:10;" d="M135.058,356.923
						c-2.525,10.629-10.645,19.762-20.906,23.513"/>
					<path style="fill:none;stroke:#2E2854;stroke-linecap:round;stroke-linejoin:round;stroke-miterlimit:10;" d="M208.774,350.476
						c-1.065,8.101,4.695,16.538,12.628,18.494"/>
					<path style="fill:none;stroke:#2E2854;stroke-linecap:round;stroke-linejoin:round;stroke-miterlimit:10;" d="M184.833,360.913
						c0.094,6.732-0.118,13.467-0.633,20.181c-0.162,2.092-0.397,4.306-1.663,5.981c-2.015,2.665-5.818,3.017-10.732,4.355
						c-1.069,34.838-3.496,78.799-4.564,113.636"/>
				</g>
				<path style="opacity:0.15;fill:#2E2854;" d="M226.738,343.002c-0.079-1.769-0.153-3.538-0.238-5.307l-118.105,2.16
					c-0.216,3.655-0.433,7.331-0.65,11.019C126.828,352.062,189.23,354.81,226.738,343.002z"/>
			</g>
			<g>
				<g>
					<g>
						<g>
							<path style="fill:#9E4950;" d="M308.338,267.759c-7.922,7.98-15.916,16.022-24.112,24.233c-2.93,2.351-5.211,5.39-7.58,8.305
								c-2.369,2.914-4.923,5.788-8.192,7.635c-3.268,1.85-7.406,2.535-10.798,0.924c-3.645-1.731-5.681-5.629-7.244-9.35
								c-5.859-13.941-8.558-28.962-11.892-45.116c-0.623-3.026-1.281-6.047-1.934-8.576c-6.761,0.979-13.451,2.439-21.329,5.081
								c1.982,12.867,1.498,25.98,2.636,38.949c1.138,12.969,4.117,26.264,12.035,36.598c7.918,10.334,21.729,16.969,34.238,13.361
								c6.499-1.874,11.996-6.214,16.865-10.907c16.559-15.962,32.497-30.289,49.432-51.367l-12.543-15.994L308.338,267.759z"/>
							<path style="opacity:0.15;fill:#2E2854;" d="M264.165,339.802c6.499-1.874,11.996-6.214,16.865-10.907
								c13.814-13.316,27.198-25.508,41.087-41.417c-24.924,27.536-70.323,46.548-84.783,32.034
								c-11.896-11.94-11.319-56.329-10.731-71.839c-3.584,0.828-7.308,1.868-11.346,3.222c1.982,12.867,1.498,25.98,2.636,38.949
								c1.138,12.969,4.117,26.264,12.035,36.598C237.846,336.774,251.657,343.41,264.165,339.802z"/>
						</g>
						<g>
							<path style="fill:#9E4950;" d="M317.92,264.683c4.666-5.004,9.686-9.678,15.009-13.976c1.069-0.864,2.655-1.715,3.685-0.807
								c0.567,0.5,0.671,1.374,0.448,2.096c-0.224,0.721-0.711,1.326-1.193,1.909c-4.033,4.871-8.359,9.5-12.946,13.855
								l-0.805,1.712L317.92,264.683z"/>
							<path style="fill:none;stroke:#2E2854;stroke-linecap:round;stroke-linejoin:round;stroke-miterlimit:10;" d="
								M317.92,264.683c4.666-5.004,9.686-9.678,15.009-13.976c1.069-0.864,2.655-1.715,3.685-0.807
								c0.567,0.5,0.671,1.374,0.448,2.096c-0.224,0.721-0.711,1.326-1.193,1.909c-4.033,4.871-8.359,9.5-12.946,13.855"/>
						</g>
						<g>
							<path style="fill:#9E4950;" d="M335.353,274.597c-1.049,1.488-2.405,2.759-3.96,3.708c-0.793,0.485-1.878,0.864-2.59,0.266
								c-0.367-0.311-0.522-0.822-0.496-1.304c0.024-0.481,0.206-0.94,0.414-1.374c0.976-2.046,2.592-3.779,4.562-4.899
								c0.848-0.482,2.012-0.814,2.721-0.144c0.41,0.389,0.52,1.018,0.417,1.575C336.317,272.982,336.102,273.533,335.353,274.597z"
								/>
							<path style="fill:none;stroke:#2E2854;stroke-linecap:round;stroke-linejoin:round;stroke-miterlimit:10;" d="
								M335.353,274.597c-1.049,1.488-2.405,2.759-3.96,3.708c-0.793,0.485-1.878,0.864-2.59,0.266
								c-0.367-0.311-0.522-0.822-0.496-1.304c0.024-0.481,0.206-0.94,0.414-1.374c0.976-2.046,2.592-3.779,4.562-4.899
								c0.848-0.482,2.012-0.814,2.721-0.144c0.41,0.389,0.52,1.018,0.417,1.575C336.317,272.982,336.102,273.533,335.353,274.597z"
								/>
						</g>
						<g>
							<path style="fill:#9E4950;" d="M315.407,282.605c3.14-4.664,3.993-10.795,2.245-15.274c1.891-3.242,3.783-6.484,5.675-9.726
								c0.41-0.706,0.835-1.459,0.809-2.275c-0.027-0.815-0.71-1.665-1.518-1.546c-0.464,0.067-0.829,0.419-1.159,0.751
								c-4.366,4.402-8.732,8.804-13.121,13.225"/>
							<path style="fill:none;stroke:#2E2854;stroke-linecap:round;stroke-linejoin:round;stroke-miterlimit:10;" d="
								M315.407,282.605c3.14-4.664,3.993-10.795,2.245-15.274c1.891-3.242,3.783-6.484,5.675-9.726
								c0.41-0.706,0.835-1.459,0.809-2.275c-0.027-0.815-0.71-1.665-1.518-1.546c-0.464,0.067-0.829,0.419-1.159,0.751
								c-4.366,4.402-8.732,8.804-13.121,13.225"/>
						</g>
						<g>
							<path style="fill:#9E4950;" d="M332.965,271.478c-1.88,1.979-3.9,4.044-6.541,4.736c-1.079,0.282-2.489,0.165-2.953-0.849
								c-0.417-0.914,0.2-1.944,0.801-2.75c1.833-2.471,3.905-4.994,6.801-6.027c1.047-0.374,2.378-0.465,3.112,0.368
								c0.465,0.526,0.555,1.302,0.405,1.987C334.442,269.627,334.111,270.272,332.965,271.478z"/>
							<path style="fill:none;stroke:#2E2854;stroke-linecap:round;stroke-linejoin:round;stroke-miterlimit:10;" d="
								M332.965,271.478c-1.88,1.979-3.9,4.044-6.541,4.736c-1.079,0.282-2.489,0.165-2.953-0.849
								c-0.417-0.914,0.2-1.944,0.801-2.75c1.833-2.471,3.905-4.994,6.801-6.027c1.047-0.374,2.378-0.465,3.112,0.368
								c0.465,0.526,0.555,1.302,0.405,1.987C334.442,269.627,334.111,270.272,332.965,271.478z"/>
						</g>
						<g>
							<path style="fill:#9E4950;" d="M330.459,266.78c-1.933,2.22-3.996,4.531-6.779,5.489c-0.898,0.31-2.004,0.424-2.698-0.223
								c-0.818-0.762-0.597-2.111-0.145-3.133c1.202-2.716,3.525-4.782,6.021-6.392c0.64-0.412,1.315-0.807,2.064-0.944
								c0.749-0.136,1.596,0.035,2.098,0.607C331.863,263.143,331.978,265.034,330.459,266.78z"/>
							<path style="fill:none;stroke:#2E2854;stroke-linecap:round;stroke-linejoin:round;stroke-miterlimit:10;" d="
								M330.459,266.78c-1.933,2.22-3.996,4.531-6.779,5.489c-0.898,0.31-2.004,0.424-2.698-0.223
								c-0.818-0.762-0.597-2.111-0.145-3.133c1.202-2.716,3.525-4.782,6.021-6.392c0.64-0.412,1.315-0.807,2.064-0.944
								c0.749-0.136,1.596,0.035,2.098,0.607C331.863,263.143,331.978,265.034,330.459,266.78z"/>
						</g>
					</g>
					<path style="fill:#F7A145;" d="M219.176,250.536c8.82,0.234,17.658-0.27,26.394-1.507
						c-2.278-20.704-11.519-39.657-25.574-53.96c-2.213-2.252-4.543-4.386-6.976-6.396L219.176,250.536z"/>
				</g>
				<g>
					<path style="fill:#F7A145;" d="M226.499,337.695c-1.877-38.876-5.223-77.681-10.035-116.304l-3.445-32.717
						c-3.49-2.882-7.196-5.499-11.067-7.847l0,0l-35.714,4.942l-32.501-19.658c-2.764,0.408-5.503,0.985-8.175,1.768l-17.531,60.535
						c-2.756,38.113-5.512,76.226-8.367,115.375C141.872,349.07,184.991,346.993,226.499,337.695L226.499,337.695z"/>
					<path style="fill:#9E4950;" d="M133.737,166.111c2.985,10.272,8.38,19.715,16.476,26.18
						c8.907,7.115,21.192,10.257,32.138,7.071c8.98-2.614,16.634-9.774,19.602-18.536c-10.573-6.414-22.403-10.763-34.636-12.588
						c-8.989-2.164-18.199-3.289-27.394-2.76C137.857,165.597,135.791,165.809,133.737,166.111z"/>
					<path style="fill:#F5F5F5;" d="M140.656,277.665c-0.603-11.169,1.181-22.46,5.2-32.9c1.871-4.862,4.337-9.69,8.372-12.986
						c4.689-3.831,11.161-5.163,17.121-4.095c5.958,1.068,11.386,4.381,15.554,8.774c10.038,10.58,12.469,26.343,11.649,40.904
						c-0.488,8.674-2.359,18.051-8.956,23.702c-6.789,5.817-16.904,6.048-25.467,3.48c-6.193-1.859-12.065-5.069-16.494-9.778
						C143.204,290.057,140.985,283.779,140.656,277.665z"/>
					<path style="opacity:0.15;fill:#2E2854;" d="M196.308,271.329c-25.319,6.176-54.634,3.413-61.25-6.148
						c-6.616-9.56-5.298-31.436-5.298-31.436l-25.988,53.528c-0.587,8.099-1.176,16.224-1.769,24.38
						c8.796,5.992,25.745,14.535,51.58,15.215c32.513,0.856,60.828-21.752,70.369-30.328c-0.692-9.215-1.47-18.423-2.328-27.624
						C216.478,268.25,208.402,268.379,196.308,271.329z"/>
				</g>
				<path style="fill:#9E4950;" d="M237.334,257.866c-0.706-2.789-3.556-4.699-6.428-4.875c-2.87-0.178-5.677,1.118-7.885,2.962
					c-2.208,1.842-3.913,4.203-5.592,6.54c0,0,6.215,3.794,12.043,2.37C235.301,263.438,237.334,257.866,237.334,257.866z"/>
				<g>
					<g>
						<path style="fill:#F5F5F5;" d="M340.658,297.939c18.41,18.251,29.297,43.876,29.653,69.797c0,0,26.787,2.187,26.173,1.328
							c1.967-17.296-0.786-35.107-7.884-51.004c-7.098-15.895-18.521-29.834-32.713-39.916L340.658,297.939z"/>
						<g>
							<path style="fill:none;stroke:#9ACEDB;stroke-linecap:round;stroke-linejoin:round;stroke-miterlimit:10;" d="
								M349.748,296.78c5.557,4.775,10.468,10.296,14.589,16.354"/>
							<path style="fill:none;stroke:#9ACEDB;stroke-linecap:round;stroke-linejoin:round;stroke-miterlimit:10;" d="
								M385.902,348.516c0.795,6.059,0.987,12.195,0.551,18.291"/>
							<path style="fill:none;stroke:#9ACEDB;stroke-linecap:round;stroke-linejoin:round;stroke-miterlimit:10;" d="
								M374.568,314.812c3.538,6.167,6.334,12.755,8.344,19.574"/>
							<path style="fill:none;stroke:#9ACEDB;stroke-linecap:round;stroke-linejoin:round;stroke-miterlimit:10;" d="
								M376.048,341.418c1.998,8.334,2.615,16.999,1.814,25.534"/>
							<path style="fill:none;stroke:#9ACEDB;stroke-linecap:round;stroke-linejoin:round;stroke-miterlimit:10;" d="
								M362.869,291.007c7.897,6.639,14.535,14.772,19.454,23.84"/>
							<path style="fill:none;stroke:#9ACEDB;stroke-linecap:round;stroke-linejoin:round;stroke-miterlimit:10;" d="
								M387.15,326.057c3.135,8.576,4.889,17.655,5.174,26.782"/>
							<path style="fill:none;stroke:#9ACEDB;stroke-linecap:round;stroke-linejoin:round;stroke-miterlimit:10;" d="
								M361.638,319.512c5.262,9.066,8.492,19.304,9.383,29.749"/>
							<path style="fill:none;stroke:#9ACEDB;stroke-linecap:round;stroke-linejoin:round;stroke-miterlimit:10;" d="
								M366.792,304.818c2.33,5.727,4.268,11.612,5.804,17.6"/>
						</g>
					</g>
					<g>
						<path style="fill:#33A1BD;" d="M247.14,292.478c-1.167,0-2.304-0.212-3.346-0.645c-4.813-2.009-6.247-7.582-6.908-11.6
							c-2.643-16.078-2.021-30.397,1.848-42.558c2.233-7.025,5.749-11.137,10.452-12.222c5.018-1.16,9.614,1.647,12.244,4.658
							c2.785,3.193,4.274,7.179,5.587,10.697c0.437,1.17-0.157,2.473-1.327,2.91c-1.172,0.435-2.473-0.158-2.91-1.327
							c-1.236-3.31-2.515-6.733-4.758-9.305c-2.22-2.543-5.291-3.806-7.818-3.225c-3.781,0.872-5.979,5.477-7.158,9.186
							c-3.651,11.475-4.221,25.086-1.695,40.454c0.772,4.697,2.102,7.289,4.184,8.158c1.482,0.618,3.538,0.265,5.237-0.899
							c1.894-1.297,3.262-3.34,4.349-5.168c0.641-1.072,2.028-1.423,3.101-0.786c1.073,0.639,1.426,2.028,0.787,3.101
							c-1.262,2.119-3.048,4.783-5.681,6.586C251.419,291.798,249.231,292.478,247.14,292.478z"/>
						<g>
							<path style="fill:#208DA8;" d="M360.912,278.498c-4.118-3.07-9.823-3.872-14.628-2.057
								c-4.804,1.814-8.554,6.188-9.613,11.214c-1.06,5.025,0.606,10.541,4.996,13.896
								C350.526,296.152,357.492,287.71,360.912,278.498z"/>
							<path style="fill:#33A1BD;" d="M340.917,303.785c-0.743,0-1.471-0.366-1.903-1.036c-0.677-1.05-0.374-2.451,0.675-3.126
								c8.468-5.459,15.237-13.6,19.058-22.924c0.474-1.155,1.793-1.707,2.951-1.235c1.155,0.474,1.708,1.795,1.235,2.951
								c-4.169,10.172-11.552,19.053-20.792,25.009C341.761,303.669,341.337,303.785,340.917,303.785z"/>
						</g>
						<path style="fill:#208DA8;" d="M298.246,291.669c3.985-4.052,7.999-8.127,12.645-11.398c4.647-3.273,10.011-5.73,15.679-6.144
							c7.309-0.534,14.794,2.556,19.596,8.09c0,0-3.798,4.329-4.346,4.198c-3.416-4.255-9.768-5.152-15-3.601
							c-5.23,1.553-9.612,5.075-13.846,8.519c-4.66,3.789-9.319,7.579-13.482,11.785
							C298.92,299.627,298.568,296.099,298.246,291.669z"/>
						<g>
							<path style="fill:#208DA8;" d="M303.604,223.209c-1.561,5.266-3.122,10.534-4.683,15.8
								c3.571,24.44,5.563,48.979,5.796,73.536c-17.772,6.072-38.313,5.617-56.265-1.545c5.118-25.223,10.292-49.621,15.464-74.018
								c-1.447-5.794-2.662-11.25-4.322-16.351C273.976,216.329,289.788,216.977,303.604,223.209z"/>
							<path style="fill:none;stroke:#2E2854;stroke-linecap:round;stroke-linejoin:round;stroke-miterlimit:10;" d="
								M265.412,236.734c10.426-1.638,21.714-1.352,31.793,1.721"/>
							<path style="fill:none;stroke:#2E2854;stroke-linecap:round;stroke-linejoin:round;stroke-miterlimit:10;" d="
								M260.907,260.475c12.665-3.564,26.196-3.999,39.069-1.28"/>
							<path style="fill:none;stroke:#2E2854;stroke-linecap:round;stroke-linejoin:round;stroke-miterlimit:10;" d="
								M258.762,268.94c12.862-5.84,27.098-8.627,41.213-8.092"/>
						</g>
					</g>
				</g>
				<g>
					<path style="fill:#9E4950;" d="M127.482,257.883c0.797,3.636,2.286,7.093,4.622,9.974c4.06,5.012,10.34,7.857,16.711,8.864
						c6.371,1.005,12.885,0.335,19.258-0.655c17.17-2.665,33.98-7.635,49.357-13.574l11.992-4.065
						c4.625-1.63,9.411-2.806,14.265-3.508c2.014-0.29,4.329-0.409,5.805,0.991c1.581,1.503,1.452,4.012,1.207,6.179
						c-0.456,4.026-0.919,8.085-2.185,11.933c-1.265,3.848-3.41,7.521-6.664,9.935c-4.134,3.067-9.544,3.774-16.227,4.352
						c-17.529,12.801-37.169,23.306-58.483,27.405s-44.484,1.296-62.598-10.662c-8.416-5.556-15.722-13.17-19.523-22.511
						c-5.735-14.092-2.935-30.031-0.05-44.969L127.482,257.883z"/>
					<path style="fill:none;stroke:#2E2854;stroke-linecap:round;stroke-linejoin:round;stroke-miterlimit:10;" d="M229.422,258.427
						c4.625-1.63,9.411-2.806,14.265-3.508c2.014-0.29,4.329-0.409,5.805,0.991c1.581,1.503,1.452,4.012,1.207,6.179
						c-0.456,4.026-0.919,8.085-2.185,11.933c-1.265,3.848-3.41,7.521-6.664,9.935c-4.134,3.067-9.544,3.774-16.227,4.352
						c-17.529,12.801-37.169,23.306-58.483,27.405s-44.484,1.296-62.598-10.662c-3.159-2.085-6.161-4.461-8.881-7.109"/>
					<path style="opacity:0.15;fill:#2E2854;" d="M167.139,315.712c21.314-4.099,40.954-14.604,58.483-27.405
						c6.682-0.578,12.092-1.285,16.227-4.352c2.649-1.964,4.551-4.767,5.854-7.815c-7.164,6.604-22.12,6.743-22.12,6.743
						s-32.703,20.513-79.524,20.902c-32.2,0.268-53.225-17.382-63.216-28.431c0.521,2.437,1.22,4.839,2.175,7.186
						c3.801,9.341,11.107,16.955,19.523,22.511C122.655,317.008,145.825,319.812,167.139,315.712z"/>
					<path style="fill:#F7A145;" d="M125.562,167.88c-4.177,1.225-8.192,2.938-11.894,5.232
						c-8.278,5.131-14.597,12.896-19.885,21.073c-9.428,14.577-16.081,30.94-19.498,47.96c17.282,8.149,35.066,13.499,53.213,15.81
						l-0.017-0.073c-0.478-2.182-0.707-4.428-0.72-6.653c-0.036-5.935,1.354-11.782,2.999-17.484L125.562,167.88z"/>
				</g>
			</g>
		</g>
		<g style="clip-path:url(#SVGID_00000045593308174663946560000016346076772996306316_);">
			<path style="fill:#D24D84;" d="M403.975,456.152c7.009-27.338,11.098-55.424,12.155-83.626
				c-25.401-9.978-53.445-9.914-78.32-0.858c5.459,27.978,11.35,56.403,18.611,84.484H403.975z"/>
			<path style="opacity:0.15;fill:#2E2854;" d="M352.997,442.434c1.112,4.579,2.244,9.154,3.424,13.718h47.555
				c2.963-11.556,5.397-23.247,7.308-35.023C402.774,429.122,385.782,439.245,352.997,442.434z"/>
			<path style="fill:none;stroke:#2E2854;stroke-linecap:round;stroke-linejoin:round;stroke-miterlimit:10;" d="M341.242,379.879
				c0,0,35.604-10.022,70.945,0"/>
			<path style="fill:none;stroke:#2E2854;stroke-linecap:round;stroke-linejoin:round;stroke-miterlimit:10;" d="M344.011,385.418
				c0,0,30.259-8.967,64.58-2.901"/>
		</g>
	</g>
</g>
</svg>
